<?xml version="1.0" standalone="no"?>
<!DOCTYPE svg PUBLIC "-//W3C//DTD SVG 20010904//EN"
 "http://www.w3.org/TR/2001/REC-SVG-20010904/DTD/svg10.dtd">
<svg version="1.0" xmlns="http://www.w3.org/2000/svg"
 width="960.000000pt" height="960.000000pt" viewBox="0 0 960.000000 960.000000"
 preserveAspectRatio="xMidYMid meet">

<g transform="translate(0.000000,960.000000) scale(0.100000,-0.100000)"
fill="#000000" stroke="none">
<path d="M3520 7705 l0 -405 340 0 340 0 0 -235 0 -235 555 0 555 0 0 235 0
235 328 2 327 3 3 403 2 402 -1225 0 -1225 0 0 -405z m702 -293 c42 -17 68
-49 68 -82 l0 -31 -31 36 -31 35 -304 0 c-265 0 -305 2 -311 15 -8 22 1 28 55
36 74 10 523 3 554 -9z m1686 -6 c15 -15 15 -18 2 -26 -9 -6 -140 -10 -307
-10 -320 0 -313 1 -335 -62 -13 -37 -32 -31 -36 11 -4 34 15 63 53 84 31 18
172 25 398 22 179 -2 211 -5 225 -19z m-662 -460 c20 -28 17 -43 -8 -50 -85
-22 -924 -14 -948 10 -15 15 -2 42 26 51 13 4 225 8 470 8 430 0 446 -1 460
-19z"/>
<path d="M1788 6852 l-1218 -2 0 -410 0 -410 335 0 335 0 1 -1857 1 -1858 496
-457 497 -457 643 -1 642 0 0 -395 0 -395 1225 0 1225 0 0 395 0 395 684 0
683 0 29 27 c16 15 184 173 374 352 189 179 397 376 462 436 l117 110 1 1853
0 1852 325 0 325 0 0 410 0 410 -1237 0 -1238 0 2 -398 c1 -218 2 -403 3 -409
0 -10 73 -13 330 -13 l330 0 0 -1775 0 -1775 -925 0 -925 0 0 105 0 105 -555
0 -555 0 0 -105 0 -105 -905 0 -905 0 0 1775 0 1775 330 0 330 0 0 409 0 409
-22 3 c-13 2 -571 3 -1240 1z m1232 -412 l0 -390 -324 0 -323 0 -4 -97 c-3
-54 -5 -852 -4 -1774 0 -1635 0 -1677 19 -1698 l19 -21 897 0 897 0 46 40 c43
39 46 40 56 21 25 -46 7 -83 -42 -86 -19 -1 -39 -5 -46 -9 -8 -5 -11 -144 -11
-502 l0 -494 -340 -1 c-411 -1 -289 -1 -1017 0 l-608 1 -60 58 c-33 31 -109
102 -170 157 -60 55 -139 127 -175 161 -36 33 -119 110 -184 170 -174 158
-171 156 -169 165 2 5 -1 8 -6 6 -4 -1 -54 40 -110 91 l-101 94 0 1846 c0
1016 0 1853 0 1860 0 9 -74 12 -335 12 l-335 0 0 390 0 390 1215 0 1215 0 0
-390z m5930 0 l0 -390 -327 -2 -328 -3 -2 -1855 -2 -1855 -103 -100 c-99 -96
-164 -157 -363 -345 -50 -46 -170 -161 -269 -255 -98 -93 -189 -178 -201 -189
-22 -17 -54 -18 -687 -17 -364 1 -819 1 -1010 1 l-348 0 0 498 0 498 -42 10
c-40 8 -43 12 -46 44 -2 19 3 44 11 54 13 18 16 17 48 -27 l34 -46 928 -1 927
0 8 22 c4 13 7 820 7 1793 l0 1770 -332 3 -333 2 0 390 0 390 1215 0 1215 0 0
-390z m-3700 -3786 c24 -24 -25 -64 -77 -64 -8 0 -29 -7 -46 -15 -52 -23 -277
-32 -497 -18 -107 7 -213 17 -235 23 -34 9 -72 16 -96 19 -13 2 -17 41 -5 50
22 18 938 23 956 5z"/>
<path d="M4200 4665 l0 -1755 35 14 c57 24 119 72 148 113 42 62 57 140 67
353 11 230 13 2111 3 2653 l-6 377 -124 0 -123 0 0 -1755z m206 1688 c4 -10 9
-649 11 -1420 4 -1217 2 -1421 -11 -1551 -18 -173 -32 -226 -74 -283 l-30 -41
-6 54 c-16 157 -23 2209 -10 2885 7 343 8 352 28 361 35 17 83 14 92 -5z"/>
<path d="M5043 4818 c3 -1466 5 -1608 20 -1666 23 -83 49 -134 89 -167 34 -29
123 -75 146 -75 9 0 12 358 12 1755 l0 1755 -135 0 -136 0 4 -1602z m196 1543
c12 -8 14 -205 15 -1293 1 -705 -1 -1453 -4 -1661 l-5 -379 -38 44 c-52 60
-76 143 -90 313 -16 208 -15 2932 2 2963 10 18 20 22 59 22 26 0 53 -4 61 -9z"/>
<path d="M6170 5108 c-6 -13 -48 -142 -94 -288 -300 -943 -371 -1162 -400
-1220 -28 -58 -38 -68 -84 -90 -33 -16 -52 -31 -52 -42 0 -17 16 -18 195 -18
186 0 195 1 195 19 0 14 -9 21 -32 26 -129 25 -136 71 -49 343 l52 162 236 -2
236 -3 49 -155 c80 -250 76 -317 -17 -342 -32 -9 -45 -17 -45 -30 0 -17 16
-18 240 -18 230 0 240 1 240 19 0 13 -9 21 -30 26 -77 17 -125 95 -193 316
-118 382 -408 1302 -413 1310 -9 16 -24 10 -34 -13z m159 -583 c108 -345 109
-347 116 -385 4 -19 20 -69 35 -111 41 -106 120 -384 120 -418 0 -27 -33 -82
-43 -71 -2 3 -1 30 3 60 5 30 4 75 -1 100 -17 82 -90 304 -113 345 -13 22 -26
64 -29 93 -5 46 -128 455 -174 582 -9 25 -30 57 -46 73 -27 25 -28 29 -17 57
l13 30 32 -63 c18 -34 65 -166 104 -292z m-293 -21 c-41 -126 -81 -251 -87
-279 -15 -57 -29 -80 -29 -45 0 23 153 508 172 543 28 53 11 -12 -56 -219z
m211 -94 c55 -176 98 -322 95 -325 -3 -3 -98 -5 -210 -5 -151 1 -203 4 -200
13 2 7 49 153 104 324 54 172 102 313 105 313 3 0 51 -144 106 -320z m-327
-348 c0 -5 -9 -17 -20 -27 -18 -16 -78 -187 -122 -345 -10 -37 -13 -41 -16
-19 -5 39 87 321 124 377 14 22 34 30 34 14z m383 -7 c-2 -5 -7 -10 -13 -9 -5
1 -63 3 -127 4 l-118 4 110 6 c137 8 151 7 148 -5z m-553 -526 c0 -5 -7 -9
-15 -9 -15 0 -20 12 -9 23 8 8 24 -1 24 -14z"/>
<path d="M2630 5065 c0 -23 4 -25 46 -25 61 0 109 -45 119 -111 3 -24 5 -339
3 -699 -2 -518 -6 -660 -16 -678 -19 -33 -71 -62 -113 -62 -28 0 -38 -5 -42
-20 -5 -20 0 -20 352 -20 209 0 381 4 415 11 153 28 252 116 306 273 74 216
-5 442 -182 523 l-57 27 50 34 c94 63 148 166 156 298 13 202 -85 371 -252
433 -83 31 -202 41 -507 41 l-278 0 0 -25z m550 -5 c-20 -13 -67 -13 -75 0 -4
6 12 10 42 10 35 0 44 -3 33 -10z m239 -53 c88 -52 161 -166 191 -302 8 -36 6
-56 -11 -112 -28 -91 -51 -133 -104 -193 -63 -71 -69 -84 -51 -118 8 -16 43
-54 79 -84 68 -61 117 -138 137 -220 11 -41 9 -55 -9 -112 -12 -36 -21 -71
-21 -79 0 -8 -13 -40 -30 -73 -51 -104 -136 -172 -252 -204 -77 -20 -78 -5 -2
18 131 40 215 120 265 251 17 45 20 72 17 141 -6 125 -35 183 -143 285 -47 44
-85 88 -85 98 0 9 22 42 50 72 72 79 97 122 116 195 24 94 15 194 -26 276 -37
76 -117 152 -191 182 -44 18 -48 21 -19 16 19 -3 59 -20 89 -37z m-482 6 c-11
-23 -12 -96 -7 -373 4 -231 2 -350 -5 -359 -19 -26 -24 54 -25 397 -1 340 1
362 36 362 12 0 12 -4 1 -27z m336 -29 c64 -22 132 -85 169 -157 56 -111 49
-274 -16 -376 -31 -48 -52 -66 -111 -93 -44 -20 -66 -23 -175 -23 -69 0 -133
4 -142 7 -17 7 -18 32 -18 322 l0 314 28 10 c44 17 212 14 265 -4z m-123 -673
c0 -5 -6 -11 -12 -14 -18 -6 -39 3 -32 14 7 12 44 12 44 0z m152 -91 c109 -43
170 -118 204 -253 29 -109 6 -226 -62 -318 -26 -36 -52 -57 -102 -81 -60 -30
-75 -33 -157 -33 -49 0 -116 6 -147 13 l-58 13 0 339 0 339 28 4 c15 3 74 4
132 2 79 -2 119 -9 162 -25z m-367 -653 c15 -35 65 -52 160 -53 127 -3 136 -4
100 -15 -31 -9 -199 5 -239 21 -11 4 -29 17 -40 28 -17 20 -18 41 -17 342 1
177 5 329 9 338 4 9 10 -131 13 -313 3 -181 9 -338 14 -348z"/>
</g>
</svg>
