<?xml version="1.0" encoding="UTF-8" standalone="no"?>
<svg
   xmlns:dc="http://purl.org/dc/elements/1.1/"
   xmlns:cc="http://creativecommons.org/ns#"
   xmlns:rdf="http://www.w3.org/1999/02/22-rdf-syntax-ns#"
   xmlns:svg="http://www.w3.org/2000/svg"
   xmlns="http://www.w3.org/2000/svg"
   xmlns:sodipodi="http://sodipodi.sourceforge.net/DTD/sodipodi-0.dtd"
   xmlns:inkscape="http://www.inkscape.org/namespaces/inkscape"
   sodipodi:docname="IBG-round-border-grey.svg"
   inkscape:version="1.0 (4035a4fb49, 2020-05-01)"
   id="svg3649"
   version="1.1"
   viewBox="0 0 47.4091 47.4091"
   height="47.4091mm"
   width="47.4091mm">
  <defs
     id="defs3643" />
  <sodipodi:namedview
     inkscape:window-maximized="1"
     inkscape:window-y="0"
     inkscape:window-x="0"
     inkscape:window-height="1139"
     inkscape:window-width="1920"
     fit-margin-bottom="0"
     fit-margin-right="0"
     fit-margin-left="0"
     fit-margin-top="0"
     showgrid="false"
     inkscape:document-rotation="0"
     inkscape:current-layer="layer1"
     inkscape:document-units="mm"
     inkscape:cy="69.591994"
     inkscape:cx="-124.69372"
     inkscape:zoom="0.35"
     inkscape:pageshadow="2"
     inkscape:pageopacity="0.0"
     borderopacity="1.0"
     bordercolor="#666666"
     pagecolor="#ffffff"
     id="base" />
  <metadata
     id="metadata3646">
    <rdf:RDF>
      <cc:Work
         rdf:about="">
        <dc:format>image/svg+xml</dc:format>
        <dc:type
           rdf:resource="http://purl.org/dc/dcmitype/StillImage" />
        <dc:title></dc:title>
      </cc:Work>
    </rdf:RDF>
  </metadata>
  <g
     transform="translate(-138.82521,-129.75378)"
     id="layer1"
     inkscape:groupmode="layer"
     inkscape:label="Layer 1">
    <g
       transform="matrix(0.35277777,0,0,-0.35277777,92.960222,199.10425)"
       id="g2002">
      <g
         transform="translate(197.205,65.235)"
         id="g734">
        <path
           id="path736"
           style="fill:#cbb764;fill-opacity:1;fill-rule:nonzero;stroke:none"
           d="m 0,0 c -35.432,0 -64.155,28.723 -64.155,64.155 0,1.759 0.091,3.496 0.23,5.22 0.056,0.694 0.117,1.387 0.195,2.075 0.332,2.935 0.852,5.813 1.566,8.614 1.324,1.88 2.729,3.887 2.97,4.309 0.489,0.857 0.962,1.726 1.441,2.591 V 86.102 75.848 c 0.484,0.384 0.968,0.773 1.452,1.152 l 0.778,0.625 v 12.482 0.834 c 0.03,0.051 0.057,0.103 0.087,0.155 1.857,3.17 3.838,6.017 5.888,8.461 l 1.362,1.624 V 83.679 c 0.755,0.641 1.486,1.304 2.23,1.956 v 17.731 l 0.25,0.229 c 1.92,1.76 3.921,3.211 5.948,4.313 0.377,0.205 0.757,0.395 1.139,0.577 0.257,0.123 0.515,0.232 0.772,0.344 V 93.335 l 0.733,0.802 1.062,-1.87 0.435,-0.765 v 18.161 c 1.817,0.565 3.667,0.881 5.506,0.926 0.542,0.015 1.111,-0.002 1.783,-0.051 l 0.715,-0.052 V 89.18 l 2.23,2.543 v 18.392 l 1.004,-0.317 c 1.004,-0.318 1.981,-0.735 2.986,-1.275 1.675,-0.998 3.044,-1.935 4.214,-2.881 0.305,-0.247 0.579,-0.486 0.842,-0.725 0.366,-0.35 0.851,-0.922 1.297,-1.451 l 0.024,0.028 c 1.12,-1.289 2.137,-2.58 3.076,-3.866 0.353,-0.483 0.699,-0.965 1.034,-1.446 l 1.136,-1.929 0.096,-0.151 c -0.003,-0.003 -0.006,-0.006 -0.008,-0.008 0.904,-1.492 1.78,-2.999 2.694,-4.588 l 1.043,-1.808 c 0.499,-0.861 1,-1.725 1.505,-2.586 0.019,-0.031 0.037,-0.062 0.056,-0.094 0.512,-0.872 1.03,-1.741 1.556,-2.601 v 0 c 5.542,-9.064 11.98,-17.062 23.19,-17.062 2.895,0 5.534,0.521 8.065,1.592 1.219,0.516 2.383,1.142 3.46,1.863 0.813,0.543 1.604,1.154 2.39,1.837 10e-4,0 10e-4,-0.001 10e-4,-0.001 0.007,0.006 0.013,0.012 0.02,0.018 0.277,0.241 0.554,0.491 0.831,0.751 l -0.006,0.005 c 1.479,1.382 2.905,2.998 4.282,4.799 -0.713,0.652 -1.42,1.308 -2.118,1.972 -0.125,-0.166 -0.248,-0.336 -0.374,-0.497 l -1.132,-1.438 -0.179,-0.228 -2.16,-2.253 -0.243,-0.237 c -0.138,-0.135 -0.28,-0.256 -0.419,-0.387 l -0.01,0.007 c -0.954,-0.852 -1.917,-1.583 -2.918,-2.212 -0.157,-0.099 -0.326,-0.179 -0.486,-0.273 v 15.573 c -0.751,0.808 -1.495,1.622 -2.23,2.443 V 72.972 71.565 c -0.137,-0.056 -0.269,-0.126 -0.407,-0.179 -1.56,-0.598 -3.203,-0.968 -4.884,-1.099 l -0.831,-0.065 v 27.57 c -0.747,0.906 -1.492,1.814 -2.23,2.727 V 70.272 l -0.872,0.115 c -1.499,0.199 -2.952,0.6 -4.344,1.177 v 1.307 28.013 l -2.23,-2.222 V 74.56 72.681 c -0.716,0.422 -1.425,0.899 -2.121,1.438 -0.433,0.335 -0.863,0.683 -1.285,1.06 -0.511,0.458 -1.021,0.953 -1.53,1.486 V 93.706 C 5.656,92.957 4.916,92.204 4.172,91.453 V 79.239 C 3.46,80.138 2.743,81.116 2.014,82.183 l -0.134,0.197 -2.23,3.437 -0.381,0.648 -0.11,-0.112 c 0.02,0.067 0.046,0.13 0.056,0.204 l -1.001,1.699 c -0.559,0.95 -1.117,1.913 -1.678,2.88 -0.815,1.407 -1.576,2.697 -2.307,3.913 -1.965,3.618 -4.109,7.075 -7.3,10.65 l 0.017,0.019 c -0.118,0.128 -0.247,0.256 -0.372,0.385 -0.02,0.023 -0.038,0.045 -0.059,0.068 -0.001,-0.001 -0.002,-0.002 -0.003,-0.003 -0.519,0.531 -1.077,1.055 -1.615,1.496 -1.36,1.117 -2.525,2.004 -4.126,2.972 -1.444,0.857 -2.963,1.528 -4.511,1.989 l -0.62,0.184 c -0.577,0.149 -1.17,0.274 -1.769,0.373 l -0.26,0.039 c -0.218,0.033 -0.442,0.064 -0.669,0.091 -0.177,0.021 -0.353,0.041 -0.53,0.058 l -0.177,0.015 c -0.723,0.064 -1.378,0.094 -2.006,0.094 l -0.413,-0.023 c -9.307,-0.228 -17.709,-5.841 -25.046,-16.665 11.171,18.863 31.718,31.519 55.23,31.519 21.265,0 40.104,-10.354 51.777,-26.287 -2.606,-3.02 -5.131,-6.646 -7.588,-10.887 -1.062,-1.831 -2.054,-3.528 -3.046,-5.15 0.683,-0.718 1.371,-1.429 2.064,-2.135 0.135,0.224 0.272,0.441 0.406,0.668 h -10e-4 c 0.779,1.275 1.575,2.625 2.436,4.108 l 1.439,2.476 V 79.675 c 0.666,-0.619 1.335,-1.232 2.014,-1.827 0.072,-0.062 0.144,-0.123 0.215,-0.185 v 16.892 l 0.136,0.197 c 1.19,1.734 2.414,3.324 3.656,4.789 0.985,-1.486 1.913,-3.012 2.774,-4.581 V 72.585 c 0.74,-0.474 1.485,-0.903 2.23,-1.276 v 19.148 c 2.866,-6.366 4.726,-13.279 5.373,-20.545 0.149,-1.679 0.235,-3.374 0.253,-5.087 10e-4,-0.067 0.004,-0.133 0.005,-0.2 0.001,-0.158 0.012,-0.313 0.012,-0.47 C 64.155,28.723 35.432,0 0,0 m 0,131.349 c -37.11,0 -67.194,-30.084 -67.194,-67.194 0,-37.11 30.084,-67.194 67.194,-67.194 37.11,0 67.194,30.084 67.194,67.194 0,37.11 -30.084,67.194 -67.194,67.194" />
      </g>
      <g
         transform="translate(218.2191,163.0275)"
         id="g738">
        <path
           id="path740"
           style="fill:#252322;fill-opacity:1;fill-rule:nonzero;stroke:none"
           d="m 0,0 v -27.57 l 0.831,0.064 c 1.681,0.132 3.324,0.501 4.884,1.1 0.138,0.053 0.27,0.122 0.407,0.179 v 1.406 17.717 C 4.418,-5.203 2.746,-3.276 1.093,-1.337 0.724,-0.895 0.366,-0.444 0,0" />
      </g>
      <g
         transform="translate(203.6065,158.9413)"
         id="g742">
        <path
           id="path744"
           style="fill:#252322;fill-opacity:1;fill-rule:nonzero;stroke:none"
           d="m 0,0 v -17.042 c 0.51,-0.532 1.019,-1.028 1.531,-1.485 0.422,-0.377 0.851,-0.726 1.285,-1.061 0.696,-0.538 1.405,-1.015 2.12,-1.437 v 1.879 24.101 L 3.818,3.841 C 2.548,2.558 1.273,1.279 0,0" />
      </g>
      <g
         transform="translate(196.4737,151.7001)"
         id="g746">
        <path
           id="path748"
           style="fill:#252322;fill-opacity:1;fill-rule:nonzero;stroke:none"
           d="m 0,0 0.381,-0.648 2.23,-3.437 0.134,-0.197 C 3.474,-5.349 4.191,-6.327 4.903,-7.227 V 4.988 C 3.941,4.016 2.976,3.047 2.02,2.068 Z" />
      </g>
      <g
         transform="translate(213.5183,168.8512)"
         id="g750">
        <path
           id="path752"
           style="fill:#252322;fill-opacity:1;fill-rule:nonzero;stroke:none"
           d="m 0,0 c -0.533,-0.53 -1.067,-1.059 -1.599,-1.59 l -1.147,-1.142 v -28.013 -1.307 c 1.393,-0.577 2.845,-0.978 4.345,-1.177 l 0.872,-0.115 V -3.097 C 2.192,-2.752 1.907,-2.413 1.629,-2.067 1.076,-1.382 0.538,-0.692 0,0" />
      </g>
      <g
         transform="translate(228.0867,151.8607)"
         id="g754">
        <path
           id="path756"
           style="fill:#252322;fill-opacity:1;fill-rule:nonzero;stroke:none"
           d="m 0,0 c -0.512,0.535 -1.013,1.078 -1.516,1.62 v -15.573 c 0.16,0.094 0.329,0.175 0.486,0.273 1.001,0.629 1.964,1.36 2.919,2.212 l 0.009,-0.007 c 0.14,0.131 0.281,0.252 0.419,0.387 l 0.243,0.237 2.16,2.254 0.179,0.227 1.132,1.439 c 0.126,0.16 0.25,0.33 0.374,0.496 C 4.205,-4.343 2.07,-2.198 0,0" />
      </g>
      <g
         transform="translate(227.4942,88.7171)"
         id="g758">
        <path
           id="path760"
           style="fill:#252322;fill-opacity:1;fill-rule:nonzero;stroke:none"
           d="m 0,0 h -3.246 l -0.941,3.199 c -1.067,-1.035 -2.282,-1.858 -3.646,-2.47 -1.365,-0.611 -2.831,-0.917 -4.399,-0.917 -3.042,0 -5.418,0.924 -7.127,2.776 -1.71,1.85 -2.564,4.39 -2.564,7.621 v 13.408 c 0,2.1 0.47,3.935 1.411,5.504 0.941,1.568 2.258,2.783 3.952,3.646 1.694,0.862 3.606,1.294 5.74,1.294 2.665,0 4.923,-0.597 6.774,-1.788 1.85,-1.192 3.058,-2.823 3.622,-4.893 l -4.375,-1.176 c -0.408,1.129 -1.137,2.023 -2.187,2.682 -1.052,0.658 -2.329,0.988 -3.834,0.988 -1.945,0 -3.514,-0.605 -4.705,-1.812 -1.192,-1.207 -1.788,-2.893 -1.788,-5.057 V 10.867 c 0,-2.195 0.525,-3.904 1.576,-5.128 1.051,-1.223 2.501,-1.834 4.352,-1.834 1.317,0 2.587,0.297 3.811,0.894 1.223,0.595 2.242,1.458 3.058,2.587 v 6.586 h -6.634 v 4.14 H 0 Z m -27.514,8.609 c 0,-2.446 -0.792,-4.415 -2.376,-5.904 -1.584,-1.49 -3.912,-2.235 -6.986,-2.235 h -12.466 v 32.932 h 11.29 c 3.262,0 5.716,-0.658 7.363,-1.976 1.646,-1.317 2.47,-3.372 2.47,-6.163 v -1.882 c 0,-1.066 -0.259,-2.164 -0.777,-3.293 -0.517,-1.129 -1.293,-1.992 -2.328,-2.587 1.129,-0.471 2.054,-1.325 2.775,-2.564 0.721,-1.239 1.082,-2.596 1.082,-4.07 z M -56.015,0.47 h -4.563 v 32.932 h 4.563 z m 89.869,40.673 -0.268,0.188 c -0.3,-0.012 -0.608,-0.016 -0.94,-0.001 l -0.978,0.027 c -0.301,0.018 -0.549,0.047 -0.826,0.07 l -0.405,0.04 -0.203,0.02 -0.221,0.033 -0.126,0.022 c -0.332,0.061 -0.675,0.116 -0.989,0.201 -0.645,0.152 -1.262,0.339 -1.849,0.554 -2.358,0.859 -4.412,2.011 -6.359,3.245 -1.944,1.24 -3.783,2.567 -5.53,3.98 -1.756,1.403 -3.446,2.859 -5.098,4.345 -0.319,0.287 -0.63,0.581 -0.946,0.87 -1.377,-1.801 -2.803,-3.418 -4.282,-4.8 L 4.84,49.933 C 4.563,49.673 4.286,49.423 4.008,49.182 4.002,49.176 3.995,49.17 3.989,49.164 c 0,0 -10e-4,10e-4 -10e-4,10e-4 -0.787,-0.683 -1.577,-1.294 -2.39,-1.838 -1.077,-0.72 -2.242,-1.347 -3.46,-1.862 -2.532,-1.071 -5.17,-1.592 -8.065,-1.592 -11.21,0 -17.648,7.998 -23.19,17.062 h -0.001 c -0.525,0.86 -1.043,1.728 -1.556,2.601 -0.018,0.032 -0.036,0.063 -0.055,0.094 -0.505,0.861 -1.006,1.724 -1.506,2.586 l -1.042,1.808 c -0.914,1.589 -1.79,3.096 -2.695,4.587 0.003,0.003 0.006,0.006 0.009,0.009 l -0.096,0.151 -1.137,1.929 c -0.335,0.481 -0.681,0.963 -1.033,1.446 l -8.012,-8.433 -10.657,-11.155 -1.898,-1.986 -1.163,2.38 -4.095,8.378 c -0.027,-0.009 -0.054,-0.016 -0.082,-0.028 v 0.197 l -0.017,0.035 c -0.334,-0.303 -0.668,-0.602 -1.008,-0.906 -0.868,-0.76 -1.74,-1.512 -2.623,-2.245 -1.765,-1.47 -3.548,-2.907 -5.354,-4.311 -1.803,-1.407 -3.622,-2.788 -5.455,-4.153 l -2.758,-2.032 c -0.929,-0.667 -1.824,-1.345 -2.78,-2.002 l -2.836,-1.958 -2.915,-1.845 -0.333,-0.189 c -0.139,-1.724 -0.229,-3.461 -0.229,-5.22 0,-35.432 28.723,-64.155 64.155,-64.155 35.431,0 64.154,28.723 64.154,64.155 0,0.157 -0.01,0.312 -0.011,0.47" />
      </g>
      <g
         transform="translate(193.6296,109.0405)"
         id="g762">
        <path
           id="path764"
           style="fill:#252322;fill-opacity:1;fill-rule:nonzero;stroke:none"
           d="m 0,0 c 0.721,0.784 1.082,1.96 1.082,3.528 v 0.753 c 0,1.788 -0.393,3.003 -1.176,3.646 -0.785,0.643 -2.117,0.965 -3.999,0.965 h -6.822 V -1.176 h 7.857 c 1.317,0 2.336,0.392 3.058,1.176" />
      </g>
      <g
         transform="translate(190.9951,103.9126)"
         id="g766">
        <path
           id="path768"
           style="fill:#252322;fill-opacity:1;fill-rule:nonzero;stroke:none"
           d="m 0,0 h -8.28 v -10.585 h 7.809 c 1.631,0 2.854,0.415 3.67,1.247 0.815,0.83 1.223,1.936 1.223,3.316 v 1.223 c 0,1.474 -0.376,2.643 -1.129,3.505 C 2.54,-0.431 1.442,0 0,0" />
      </g>
      <g
         transform="translate(257.7794,135.6757)"
         id="g770">
        <path
           id="path772"
           style="fill:#505558;fill-opacity:1;fill-rule:nonzero;stroke:none"
           d="m 0,0 c 0.206,-0.074 0.398,-0.112 0.596,-0.166 l 0.073,-0.019 0.037,-0.01 C 0.499,-0.164 0.663,-0.189 0.623,-0.183 L 0.648,-0.187 0.849,-0.22 1.251,-0.286 C 1.512,-0.329 1.8,-0.385 2.039,-0.417 L 2.686,-0.478 C 2.876,-0.506 3.09,-0.519 3.31,-0.529 2.663,6.737 0.804,13.65 -2.063,20.016 V 0.869 C -1.788,0.731 -1.513,0.588 -1.238,0.468 -0.819,0.279 -0.403,0.125 0,0" />
      </g>
      <g
         transform="translate(253.487,137.8196)"
         id="g774">
        <path
           id="path776"
           style="fill:#505558;fill-opacity:1;fill-rule:nonzero;stroke:none"
           d="m 0,0 v 22.375 c -0.861,1.57 -1.789,3.096 -2.774,4.581 -1.242,-1.464 -2.466,-3.055 -3.657,-4.789 L -6.566,21.97 V 5.078 C -5.057,3.77 -3.538,2.492 -1.968,1.346 -1.321,0.87 -0.662,0.423 0,0" />
      </g>
      <g
         transform="translate(169.5922,154.4153)"
         id="g778">
        <path
           id="path780"
           style="fill:#505558;fill-opacity:1;fill-rule:nonzero;stroke:none"
           d="m 0,0 v 21.306 l -0.715,0.052 c -0.672,0.048 -1.241,0.066 -1.783,0.051 -1.839,-0.045 -3.689,-0.361 -5.507,-0.927 V 2.322 l 3.947,-6.95 z" />
      </g>
      <g
         transform="translate(156.3605,155.4886)"
         id="g782">
        <path
           id="path784"
           style="fill:#505558;fill-opacity:1;fill-rule:nonzero;stroke:none"
           d="M 0,0 C 0.795,0.769 1.629,1.584 2.319,2.339 L 2.998,3.082 V 18.575 C 2.74,18.464 2.482,18.354 2.226,18.232 1.844,18.049 1.463,17.859 1.086,17.654 -0.941,16.553 -2.942,15.102 -4.862,13.342 l -0.25,-0.229 V -4.619 c 0.881,0.772 1.776,1.532 2.642,2.317 C -1.633,-1.545 -0.812,-0.775 0,0" />
      </g>
      <g
         transform="translate(138.2275,140.1324)"
         id="g786">
        <path
           id="path788"
           style="fill:#505558;fill-opacity:1;fill-rule:nonzero;stroke:none"
           d="m 0,0 c 0.409,0.305 0.817,0.627 1.224,0.951 v 10.253 0.863 C 0.745,11.202 0.273,10.332 -0.216,9.476 -0.458,9.053 -1.863,7.047 -3.186,5.167 -3.901,2.365 -4.42,-0.513 -4.753,-3.448 l 2.049,1.415 z" />
      </g>
      <g
         transform="translate(182.1652,168.7012)"
         id="g790">
        <path
           id="path792"
           style="fill:#505558;fill-opacity:1;fill-rule:nonzero;stroke:none"
           d="M 0,0 C -0.446,0.529 -0.932,1.101 -1.297,1.451 -1.56,1.69 -1.835,1.929 -2.139,2.176 -3.31,3.122 -4.678,4.059 -6.353,5.057 -7.358,5.597 -8.335,6.014 -9.339,6.331 l -1.004,0.318 v -18.392 l 2.162,2.465 z" />
      </g>
      <g
         transform="translate(148.7897,148.7126)"
         id="g794">
        <path
           id="path796"
           style="fill:#505558;fill-opacity:1;fill-rule:nonzero;stroke:none"
           d="M 0,0 C 0.078,0.066 0.152,0.135 0.229,0.201 V 17.704 L -1.133,16.079 C -3.183,13.635 -5.164,10.788 -7.02,7.618 -7.05,7.567 -7.078,7.515 -7.108,7.463 V 6.629 -5.853 l 1.875,1.508 C -3.473,-2.915 -1.725,-1.468 0,0" />
      </g>
      <g
         transform="translate(244.6916,144.9096)"
         id="g798">
        <path
           id="path800"
           style="fill:#505558;fill-opacity:1;fill-rule:nonzero;stroke:none"
           d="M 0,0 V 11.428 L -1.438,8.952 C -2.299,7.47 -3.095,6.119 -3.874,4.845 V 4.844 C -4.008,4.618 -4.145,4.4 -4.28,4.177 -3.724,3.611 -3.169,3.045 -2.607,2.488 -1.748,1.643 -0.878,0.815 0,0" />
      </g>
      <g
         transform="translate(186.1445,173.2138)"
         id="g802">
        <path
           id="path804"
           style="fill:#505558;fill-opacity:1;fill-rule:nonzero;stroke:none"
           d="M 0,0 1.876,-2.387 10.5,-13.365 c 2.107,2.37 4.204,4.751 6.31,7.123 l 4.18,4.775 c 1.395,1.59 2.775,3.194 4.188,4.767 l 2.705,3.011 2.602,-3.274 c 1.305,-1.643 2.7,-3.308 4.055,-4.963 1.367,-1.655 2.751,-3.297 4.148,-4.927 2.761,-3.288 5.605,-6.499 8.454,-9.691 1.671,-1.837 3.355,-3.658 5.061,-5.449 0.992,1.622 1.985,3.319 3.046,5.151 2.457,4.24 4.983,7.866 7.588,10.887 C 51.164,9.977 32.325,20.331 11.06,20.331 c -23.512,0 -44.058,-12.656 -55.229,-31.519 7.337,10.824 15.738,16.437 25.045,16.666 l 0.413,0.023 c 0.628,0 1.284,-0.031 2.007,-0.095 l 0.177,-0.015 c 0.177,-0.017 0.353,-0.036 0.529,-0.058 0.227,-0.027 0.451,-0.058 0.669,-0.091 l 0.26,-0.039 c 0.6,-0.099 1.192,-0.224 1.769,-0.372 l 0.62,-0.185 c 1.548,-0.461 3.067,-1.132 4.512,-1.989 1.601,-0.968 2.765,-1.855 4.126,-2.972 0.537,-0.441 1.095,-0.965 1.614,-1.495 10e-4,0 0.002,0.001 0.004,0.002 0.02,-0.023 0.038,-0.045 0.059,-0.068 0.125,-0.128 0.253,-0.257 0.371,-0.385 l 0.037,0.041 z" />
      </g>
      <g
         transform="translate(159.3583,154.0194)"
         id="g806">
        <path
           id="path808"
           style="fill:#cbb764;fill-opacity:1;fill-rule:nonzero;stroke:none"
           d="M 0,0 C 0.028,0.012 0.055,0.018 0.082,0.028 L 0,0.197 Z" />
      </g>
      <g
         transform="translate(136.5276,136.6437)"
         id="g810">
        <path
           id="path812"
           style="fill:#ffffff;fill-opacity:1;fill-rule:nonzero;stroke:none"
           d="m 0,0 2.836,1.959 c 0.955,0.657 1.851,1.334 2.78,2.001 l 2.757,2.033 c 1.833,1.364 3.653,2.745 5.456,4.153 1.806,1.403 3.589,2.841 5.353,4.31 0.884,0.733 1.755,1.485 2.623,2.246 0.341,0.304 0.675,0.603 1.009,0.905 l 0.017,-0.035 0.082,-0.168 4.094,-8.379 1.164,-2.379 1.897,1.986 10.658,11.155 8.012,8.432 c -0.939,1.286 -1.956,2.578 -3.076,3.866 l -0.024,-0.028 -8.182,-9.277 -2.162,-2.466 -2.229,-2.542 -4.058,-4.628 -3.947,6.949 -0.435,0.766 -1.061,1.869 -0.733,-0.802 -0.679,-0.742 C 21.462,20.429 20.628,19.614 19.833,18.845 19.021,18.07 18.2,17.3 17.363,16.543 16.497,15.758 15.602,14.998 14.721,14.226 13.978,13.574 13.246,12.911 12.492,12.27 12.414,12.204 12.34,12.135 12.262,12.069 10.537,10.601 8.789,9.154 7.029,7.724 L 5.154,6.216 4.377,5.591 C 3.892,5.212 3.408,4.824 2.924,4.439 2.517,4.116 2.109,3.794 1.7,3.489 L -1.004,1.456 -3.053,0.041 c -0.078,-0.688 -0.139,-1.38 -0.195,-2.075 l 0.333,0.189 z" />
      </g>
      <g
         transform="translate(242.654,138.2386)"
         id="g814">
        <path
           id="path816"
           style="fill:#ffffff;fill-opacity:1;fill-rule:nonzero;stroke:none"
           d="m 0,0 c 1.748,-1.412 3.586,-2.739 5.53,-3.979 1.947,-1.234 4.001,-2.387 6.359,-3.245 0.587,-0.215 1.204,-0.403 1.849,-0.555 0.314,-0.085 0.657,-0.139 0.99,-0.2 l 0.125,-0.023 0.221,-0.032 0.203,-0.021 0.405,-0.039 c 0.277,-0.023 0.526,-0.053 0.826,-0.07 l 0.978,-0.027 c 0.332,-0.016 0.64,-0.011 0.94,0 0.088,0.003 0.175,0.008 0.263,0.012 -0.018,1.713 -0.104,3.409 -0.253,5.087 -0.22,0.01 -0.434,0.023 -0.624,0.051 l -0.647,0.061 c -0.24,0.032 -0.527,0.088 -0.789,0.131 l -0.401,0.066 -0.201,0.033 -0.025,0.004 c 0.04,-0.006 -0.125,0.019 0.083,-0.012 l -0.037,0.01 -0.074,0.019 c -0.197,0.054 -0.39,0.092 -0.596,0.166 -0.403,0.125 -0.819,0.279 -1.238,0.468 -0.274,0.12 -0.549,0.263 -0.824,0.401 -0.745,0.373 -1.49,0.802 -2.23,1.275 C 10.171,0.004 9.512,0.451 8.865,0.927 7.295,2.073 5.776,3.351 4.267,4.659 4.196,4.721 4.124,4.782 4.052,4.845 3.373,5.44 2.704,6.053 2.038,6.671 1.16,7.486 0.289,8.314 -0.569,9.159 c -0.562,0.557 -1.118,1.123 -1.673,1.689 -0.693,0.705 -1.381,1.417 -2.064,2.134 -1.706,1.791 -3.39,3.612 -5.061,5.449 -2.849,3.192 -5.694,6.403 -8.454,9.691 -1.397,1.63 -2.782,3.272 -4.148,4.928 -1.355,1.655 -2.75,3.319 -4.056,4.962 l -2.601,3.274 -2.706,-3.011 c -1.413,-1.573 -2.793,-3.177 -4.187,-4.767 l -4.18,-4.775 c -2.106,-2.372 -4.203,-4.752 -6.31,-7.123 l -8.625,10.978 -1.875,2.387 -1.958,-2.219 -0.036,-0.042 -0.017,-0.019 c 3.191,-3.574 5.335,-7.031 7.3,-10.65 0.731,-1.216 1.492,-2.506 2.307,-3.912 0.561,-0.968 1.119,-1.931 1.678,-2.881 l 1.001,-1.699 c -0.01,-0.073 -0.036,-0.136 -0.056,-0.204 l 0.11,0.112 2.02,2.069 c 0.955,0.978 1.92,1.948 2.883,2.919 0.744,0.751 1.484,1.505 2.23,2.254 1.273,1.279 2.548,2.557 3.817,3.84 l 1.119,1.115 2.23,2.222 1.146,1.143 c 0.532,0.531 1.066,1.06 1.599,1.59 0.539,-0.693 1.077,-1.383 1.63,-2.068 0.277,-0.346 0.563,-0.684 0.841,-1.029 0.738,-0.914 1.483,-1.822 2.23,-2.727 0.366,-0.444 0.724,-0.895 1.093,-1.337 1.653,-1.939 3.325,-3.866 5.029,-5.767 0.735,-0.821 1.479,-1.635 2.23,-2.443 0.503,-0.542 1.004,-1.085 1.516,-1.62 2.07,-2.198 4.205,-4.343 6.405,-6.435 0.698,-0.664 1.405,-1.32 2.118,-1.972 C -5.728,4.926 -5.417,4.632 -5.098,4.346 -3.446,2.859 -1.756,1.403 0,0" />
      </g>
      <path
         id="path818"
         style="fill:#ffffff;fill-opacity:1;fill-rule:nonzero;stroke:none"
         d="m 166.916,89.188 h 4.563 v 32.932 h -4.563 z" />
      <g
         transform="translate(195.417,97.8908)"
         id="g820">
        <path
           id="path822"
           style="fill:#ffffff;fill-opacity:1;fill-rule:nonzero;stroke:none"
           d="m 0,0 c 0,-1.38 -0.408,-2.486 -1.223,-3.316 -0.816,-0.832 -2.039,-1.247 -3.67,-1.247 h -7.809 V 6.022 h 8.28 c 1.442,0 2.54,-0.431 3.293,-1.294 C -0.376,3.865 0,2.697 0,1.223 Z m -12.702,20.041 h 6.821 c 1.882,0 3.215,-0.322 3.999,-0.964 0.784,-0.643 1.177,-1.858 1.177,-3.646 v -0.753 c 0,-1.569 -0.362,-2.744 -1.082,-3.528 C -2.51,10.365 -3.528,9.974 -4.845,9.974 h -7.857 z M 0.753,8.327 c 1.035,0.595 1.811,1.458 2.329,2.588 0.517,1.129 0.776,2.226 0.776,3.293 v 1.881 c 0,2.791 -0.823,4.846 -2.47,6.163 -1.647,1.318 -4.101,1.976 -7.362,1.976 H -17.265 V -8.703 h 12.466 c 3.074,0 5.402,0.744 6.987,2.234 1.583,1.489 2.376,3.458 2.376,5.905 L 4.611,1.694 C 4.611,3.168 4.25,4.524 3.528,5.763 2.807,7.002 1.882,7.857 0.753,8.327" />
      </g>
      <g
         transform="translate(216.3446,102.6894)"
         id="g824">
        <path
           id="path826"
           style="fill:#ffffff;fill-opacity:1;fill-rule:nonzero;stroke:none"
           d="M 0,0 H 6.633 V -6.586 C 5.817,-7.715 4.799,-8.578 3.575,-9.174 c -1.223,-0.596 -2.493,-0.894 -3.81,-0.894 -1.852,0 -3.302,0.612 -4.352,1.835 -1.051,1.223 -1.576,2.932 -1.576,5.128 V 9.033 c 0,2.164 0.595,3.85 1.787,5.057 1.192,1.207 2.76,1.811 4.705,1.811 1.505,0 2.783,-0.329 3.835,-0.987 1.05,-0.659 1.779,-1.553 2.187,-2.682 l 4.375,1.176 c -0.565,2.07 -1.772,3.7 -3.622,4.893 -1.851,1.191 -4.11,1.787 -6.775,1.787 -2.133,0 -4.046,-0.431 -5.739,-1.293 -1.694,-0.864 -3.011,-2.079 -3.952,-3.646 -0.941,-1.569 -1.411,-3.404 -1.411,-5.504 V -3.763 c 0,-3.231 0.854,-5.771 2.564,-7.622 1.709,-1.851 4.084,-2.775 7.127,-2.775 1.568,0 3.034,0.305 4.398,0.917 1.365,0.612 2.58,1.435 3.647,2.47 l 0.941,-3.199 H 11.15 V 4.14 H 0 Z" />
      </g>
    </g>
  </g>
</svg>
