<svg id="svg" version="1.1" xmlns="http://www.w3.org/2000/svg" xmlns:xlink="http://www.w3.org/1999/xlink" width="400" height="400" viewBox="0, 0, 400,400"><g id="svgg"><path id="path0" d="M23.784 131.600 C 23.784 141.170,23.836 145.085,23.900 140.300 C 23.963 135.515,23.963 127.685,23.900 122.900 C 23.836 118.115,23.784 122.030,23.784 131.600 M126.800 131.520 L 127.000 148.600 127.104 131.824 C 127.162 122.598,127.072 114.912,126.904 114.744 C 126.737 114.577,126.690 122.126,126.800 131.520 M270.583 131.800 C 270.583 141.260,270.636 145.073,270.700 140.273 C 270.764 135.473,270.763 127.733,270.699 123.073 C 270.636 118.413,270.583 122.340,270.583 131.800 M373.783 131.800 C 373.783 141.260,373.836 145.073,373.900 140.273 C 373.964 135.473,373.963 127.733,373.899 123.073 C 373.836 118.413,373.783 122.340,373.783 131.800 M24.400 131.600 L 24.400 148.000 38.400 148.000 L 52.400 148.000 52.400 225.553 L 52.400 303.107 54.100 304.616 C 56.353 306.616,67.522 316.854,74.812 323.600 C 78.021 326.570,83.548 331.656,87.093 334.902 L 93.539 340.804 134.070 340.702 L 174.600 340.600 174.704 319.500 C 174.760 307.895,174.685 298.400,174.535 298.400 C 174.385 298.400,173.924 298.707,173.509 299.082 C 172.690 299.823,155.887 299.941,145.600 299.277 C 141.202 298.993,141.448 298.967,151.200 298.687 C 185.777 297.694,182.213 297.379,137.804 297.504 L 100.808 297.608 99.971 296.771 C 99.510 296.310,99.033 296.034,98.910 296.157 C 98.537 296.530,99.570 297.506,100.616 297.768 C 101.698 298.040,101.966 298.800,100.980 298.800 C 98.973 298.800,97.200 296.728,97.200 294.381 C 97.200 292.796,97.948 292.876,98.310 294.500 C 98.469 295.215,98.690 262.590,98.800 222.000 L 99.000 148.200 112.500 148.095 L 126.000 147.989 126.000 131.595 L 126.000 115.200 75.200 115.200 L 24.400 115.200 24.400 131.600 M271.600 131.598 L 271.600 148.000 285.400 148.000 L 299.200 148.000 299.200 222.413 C 299.200 292.905,299.163 296.840,298.500 297.113 C 298.115 297.271,280.655 297.400,259.700 297.400 L 221.600 297.400 221.600 318.857 C 221.600 338.054,221.667 340.340,222.233 340.557 C 222.581 340.691,241.481 340.800,264.234 340.800 L 305.602 340.800 310.087 336.500 C 317.161 329.717,340.737 307.444,344.099 304.368 L 345.598 302.996 345.699 225.598 L 345.800 148.200 359.300 148.095 L 372.800 147.989 372.831 133.395 C 372.848 125.368,372.875 118.035,372.892 117.100 L 372.923 115.400 322.262 115.298 L 271.600 115.197 271.600 131.598 M275.536 144.283 C 275.942 145.039,275.893 145.229,275.197 145.602 C 273.919 146.285,273.532 145.735,273.832 143.665 C 274.187 141.213,274.512 140.730,274.815 142.202 C 274.950 142.861,275.275 143.797,275.536 144.283 M125.187 144.857 C 125.204 145.725,124.140 146.103,123.159 145.578 C 122.386 145.164,122.387 145.142,123.229 143.959 C 124.134 142.688,125.154 143.156,125.187 144.857 M102.000 145.592 C 102.000 145.808,101.567 146.093,101.038 146.226 C 97.610 147.086,97.676 146.095,97.708 196.200 C 97.735 239.557,97.406 258.070,96.733 251.000 C 95.604 239.132,95.691 153.319,96.836 149.065 C 97.547 146.424,102.000 143.430,102.000 145.592 M300.253 145.909 C 302.226 147.507,302.156 146.095,302.329 187.600 C 302.498 227.915,302.174 253.585,301.524 251.400 C 301.326 250.732,301.131 227.782,301.084 199.600 C 300.990 142.954,301.233 147.401,298.173 146.391 C 297.424 146.144,296.708 145.775,296.582 145.571 C 296.170 144.904,299.378 145.200,300.253 145.909 M346.499 225.786 L 346.400 302.973 344.505 304.986 L 342.610 307.000 344.706 304.994 L 346.802 302.988 346.700 225.794 L 346.598 148.600 346.499 225.786 M128.624 188.616 C 128.196 188.937,128.047 189.200,128.291 189.200 C 128.535 189.200,129.049 189.321,129.433 189.468 C 129.909 189.651,130.039 189.587,129.842 189.268 C 129.650 188.957,129.897 188.800,130.576 188.800 C 131.734 188.800,131.968 189.455,130.900 189.705 C 130.515 189.795,131.396 189.785,132.859 189.683 C 137.917 189.330,143.642 191.985,145.982 195.770 C 146.469 196.559,147.013 197.116,147.189 197.007 C 147.365 196.898,147.492 197.032,147.470 197.304 C 147.448 197.577,147.758 198.861,148.160 200.158 C 150.006 206.116,148.513 212.027,143.857 217.197 C 142.396 218.819,141.200 220.301,141.200 220.490 C 141.200 221.202,143.059 223.302,145.047 224.836 C 152.250 230.393,152.953 241.715,146.536 248.818 C 145.750 249.688,145.240 250.400,145.402 250.400 C 145.565 250.400,145.451 250.708,145.149 251.084 C 144.774 251.552,145.002 251.487,145.871 250.878 C 150.160 247.871,153.877 238.461,152.615 233.801 C 151.780 230.715,149.317 226.863,147.081 225.146 C 144.824 223.415,142.729 220.767,144.462 221.838 C 144.750 222.016,144.815 221.948,144.634 221.655 C 144.475 221.398,144.196 221.279,144.014 221.391 C 142.231 222.493,143.510 219.281,145.923 216.600 C 149.708 212.393,151.411 206.865,150.256 202.532 C 149.410 199.354,147.724 195.876,147.190 196.206 C 146.981 196.336,146.906 196.190,147.024 195.882 C 147.695 194.134,140.422 189.526,136.013 188.906 C 134.443 188.684,134.334 188.612,135.200 188.365 C 135.976 188.144,135.797 188.077,134.400 188.068 C 132.992 188.059,132.774 188.137,133.400 188.427 C 134.160 188.779,131.596 188.598,130.000 188.187 C 129.670 188.102,129.051 188.295,128.624 188.616 M121.286 190.225 L 120.395 190.849 120.532 221.460 C 120.647 247.281,120.757 252.133,121.234 252.463 C 123.647 254.131,129.145 254.878,135.400 254.389 C 139.759 254.047,142.449 253.331,141.539 252.754 C 141.095 252.472,141.100 252.411,141.567 252.406 C 141.878 252.403,142.058 252.324,141.965 252.232 C 141.872 252.139,140.332 252.487,138.542 253.006 C 135.413 253.912,133.600 253.950,133.600 253.108 C 133.600 252.862,133.102 252.826,132.300 253.015 C 128.143 253.994,123.188 253.024,122.405 251.079 C 122.210 250.596,122.039 250.458,122.025 250.774 C 122.011 251.090,122.391 251.765,122.870 252.274 C 123.907 253.379,123.272 253.510,121.974 252.459 C 120.922 251.607,120.376 247.464,121.143 246.145 C 121.491 245.546,121.586 245.872,121.628 247.800 C 121.660 249.289,121.778 249.852,121.940 249.284 C 122.083 248.781,122.110 242.751,122.000 235.884 C 121.842 226.045,121.914 223.086,122.337 221.917 C 122.741 220.800,122.768 220.109,122.448 219.117 C 121.665 216.695,122.071 191.776,122.910 190.797 C 124.079 189.431,122.975 189.042,121.286 190.225 M122.026 191.151 C 121.458 192.213,121.462 218.194,122.030 219.256 C 122.657 220.428,122.127 221.706,121.473 220.600 C 120.816 219.489,120.607 191.715,121.250 190.940 C 121.922 190.130,122.490 190.284,122.026 191.151 M146.800 192.125 C 146.800 192.194,147.385 192.779,148.100 193.425 L 149.400 194.600 148.225 193.300 C 147.130 192.088,146.800 191.816,146.800 192.125 M257.403 197.592 L 256.668 199.223 258.134 200.565 C 258.940 201.304,259.600 202.139,259.600 202.421 C 259.600 202.703,259.714 202.819,259.854 202.679 C 260.156 202.377,258.905 200.337,258.137 199.880 C 257.842 199.704,257.600 199.239,257.600 198.847 C 257.600 197.329,258.208 197.667,259.473 199.888 C 261.156 202.842,261.154 202.473,259.469 198.835 L 258.139 195.962 257.403 197.592 M149.427 200.993 C 151.177 206.818,149.877 211.607,145.036 217.170 C 142.497 220.089,142.414 220.446,143.808 222.498 C 144.518 223.543,144.631 223.910,144.188 223.740 C 141.259 222.616,141.410 220.187,144.619 216.800 C 149.098 212.073,150.585 205.315,148.421 199.524 C 147.867 198.040,147.808 197.639,148.226 198.193 C 148.555 198.629,149.096 199.889,149.427 200.993 M253.778 202.978 C 253.400 203.554,253.206 204.139,253.346 204.279 C 253.486 204.419,253.603 204.278,253.606 203.967 C 253.611 203.487,253.668 203.489,253.979 203.979 C 254.265 204.432,254.405 204.319,254.621 203.461 C 255.000 201.949,254.601 201.721,253.778 202.978 M255.232 203.500 C 255.251 203.922,255.344 204.001,255.466 203.698 C 255.577 203.421,255.833 203.297,256.034 203.421 C 256.235 203.545,256.400 203.457,256.400 203.224 C 256.400 202.991,256.130 202.800,255.800 202.800 C 255.470 202.800,255.214 203.115,255.232 203.500 M144.934 206.000 C 144.934 207.650,145.005 208.325,145.091 207.500 C 145.178 206.675,145.178 205.325,145.091 204.500 C 145.005 203.675,144.934 204.350,144.934 206.000 M252.962 205.333 C 253.093 205.736,253.211 206.276,253.225 206.533 C 253.239 206.790,253.423 206.569,253.634 206.042 C 253.845 205.515,253.923 204.990,253.809 204.875 C 253.694 204.761,253.597 204.922,253.594 205.233 C 253.589 205.702,253.513 205.696,253.156 205.200 C 252.797 204.701,252.765 204.723,252.962 205.333 M261.662 205.200 C 261.662 205.530,261.994 206.700,262.400 207.800 C 262.806 208.900,263.138 209.530,263.138 209.200 C 263.138 208.870,262.806 207.700,262.400 206.600 C 261.994 205.500,261.662 204.870,261.662 205.200 M261.261 207.200 C 261.261 207.530,261.503 208.430,261.800 209.200 C 262.097 209.970,262.339 210.330,262.339 210.000 C 262.339 209.670,262.097 208.770,261.800 208.000 C 261.503 207.230,261.261 206.870,261.261 207.200 M251.194 212.633 C 251.189 213.280,251.124 213.306,250.782 212.800 C 250.482 212.358,250.440 212.516,250.620 213.400 C 250.806 214.314,250.763 214.457,250.438 214.000 C 249.956 213.321,249.909 213.826,250.350 214.948 C 250.587 215.549,250.744 215.365,251.150 214.009 C 251.428 213.081,251.553 212.220,251.428 212.094 C 251.302 211.969,251.197 212.212,251.194 212.633 M264.030 212.622 C 264.013 212.854,264.437 214.294,264.970 215.822 C 265.504 217.350,265.954 218.410,265.970 218.178 C 265.987 217.946,265.563 216.506,265.030 214.978 C 264.496 213.450,264.046 212.390,264.030 212.622 M263.662 214.800 C 263.662 215.130,263.994 216.300,264.400 217.400 C 264.806 218.500,265.138 219.130,265.138 218.800 C 265.138 218.470,264.806 217.300,264.400 216.200 C 263.994 215.100,263.662 214.470,263.662 214.800 M148.175 218.500 L 147.000 219.800 148.300 218.625 C 149.512 217.530,149.784 217.200,149.475 217.200 C 149.406 217.200,148.821 217.785,148.175 218.500 M266.030 219.022 C 266.013 219.254,266.437 220.694,266.970 222.222 C 267.504 223.750,267.954 224.810,267.970 224.578 C 267.987 224.346,267.563 222.906,267.030 221.378 C 266.496 219.850,266.046 218.790,266.030 219.022 M128.100 219.476 C 128.485 219.576,129.115 219.576,129.500 219.476 C 129.885 219.375,129.570 219.293,128.800 219.293 C 128.030 219.293,127.715 219.375,128.100 219.476 M131.900 219.482 C 132.395 219.578,133.205 219.578,133.700 219.482 C 134.195 219.387,133.790 219.309,132.800 219.309 C 131.810 219.309,131.405 219.387,131.900 219.482 M247.483 221.703 C 246.771 223.963,246.606 225.182,247.200 223.800 L 247.544 223.000 247.597 223.800 C 247.646 224.524,247.686 224.512,248.025 223.667 C 248.230 223.154,248.294 222.254,248.167 221.667 C 247.987 220.840,248.031 220.735,248.362 221.200 C 248.841 221.875,248.892 221.375,248.455 220.267 C 248.235 219.708,248.005 220.048,247.483 221.703 M128.998 220.403 C 128.647 220.971,129.812 221.334,131.017 221.031 C 132.065 220.768,132.017 220.000,130.953 220.000 C 130.623 220.000,130.464 220.180,130.600 220.400 C 130.736 220.620,130.556 220.800,130.200 220.800 C 129.844 220.800,129.664 220.620,129.800 220.400 C 129.936 220.180,129.867 220.000,129.647 220.000 C 129.427 220.000,129.135 220.181,128.998 220.403 M265.637 221.000 C 265.623 221.220,265.959 222.480,266.384 223.800 C 266.809 225.120,267.153 225.840,267.147 225.400 C 267.137 224.557,265.680 220.312,265.637 221.000 M128.112 223.095 C 129.164 223.177,130.784 223.176,131.712 223.092 C 132.640 223.008,131.780 222.941,129.800 222.942 C 127.820 222.943,127.060 223.012,128.112 223.095 M246.446 225.733 C 246.394 227.016,247.319 227.044,247.522 225.767 C 247.616 225.171,247.558 225.125,247.262 225.558 C 246.952 226.012,246.845 225.974,246.687 225.358 C 246.553 224.835,246.478 224.952,246.446 225.733 M151.131 231.142 C 151.797 232.604,152.374 234.250,152.415 234.800 C 152.660 238.122,151.929 237.975,151.284 234.572 C 150.740 231.706,149.460 228.876,147.748 226.757 C 146.688 225.445,146.706 225.451,148.286 226.942 C 149.226 227.829,150.435 229.615,151.131 231.142 M121.498 234.682 C 121.422 236.397,121.361 235.100,121.360 231.800 C 121.359 228.500,121.421 227.097,121.497 228.682 C 121.572 230.267,121.573 232.967,121.498 234.682 M267.253 227.921 C 267.215 229.161,267.480 230.054,268.200 231.114 C 268.750 231.923,269.200 232.404,269.200 232.182 C 269.200 231.960,268.888 231.333,268.507 230.789 C 268.126 230.245,267.700 228.990,267.561 228.000 L 267.307 226.200 267.253 227.921 M268.427 227.440 C 268.400 228.293,269.194 230.941,269.411 230.720 C 269.476 230.654,269.287 229.700,268.992 228.600 C 268.696 227.500,268.442 226.978,268.427 227.440 M247.050 229.015 C 246.683 229.969,247.258 230.025,256.210 229.900 L 264.600 229.783 255.913 229.691 C 248.379 229.612,247.256 229.520,247.455 229.000 C 247.582 228.670,247.596 228.400,247.486 228.400 C 247.376 228.400,247.179 228.677,247.050 229.015 M245.519 230.691 C 244.281 232.102,243.594 233.913,243.941 234.851 C 244.264 235.725,244.284 235.717,244.568 234.577 C 244.730 233.930,245.319 232.800,245.877 232.066 C 246.974 230.625,246.654 229.397,245.519 230.691 M251.600 230.787 C 250.642 231.069,250.659 231.093,252.000 231.360 C 254.060 231.770,263.000 231.478,263.000 231.000 C 263.000 230.527,253.109 230.342,251.600 230.787 M246.400 230.938 C 246.400 231.014,246.014 231.419,245.542 231.838 C 244.688 232.596,244.686 232.595,245.156 231.700 C 245.546 230.957,246.400 230.434,246.400 230.938 M269.829 232.000 C 269.976 232.550,270.264 233.270,270.467 233.600 C 270.725 234.017,270.757 233.895,270.571 233.200 C 270.424 232.650,270.136 231.930,269.933 231.600 C 269.675 231.183,269.643 231.305,269.829 232.000 M269.432 233.700 C 270.199 236.121,271.145 238.554,271.171 238.178 C 271.211 237.600,269.573 232.800,269.336 232.800 C 269.232 232.800,269.275 233.205,269.432 233.700 M245.861 233.500 C 245.759 233.665,248.583 233.754,252.137 233.697 C 264.214 233.505,265.424 233.365,255.724 233.282 C 250.402 233.237,245.963 233.335,245.861 233.500 M270.841 234.674 C 270.818 234.935,270.984 235.632,271.209 236.223 C 273.560 242.408,275.056 250.304,274.064 251.296 C 273.712 251.648,273.607 251.088,273.630 248.980 C 273.656 246.574,272.096 239.563,271.375 238.842 C 271.049 238.516,271.197 239.178,272.234 242.694 C 273.122 245.703,273.235 246.673,273.030 249.530 C 272.767 253.192,273.260 253.750,274.858 251.600 C 275.587 250.620,275.582 250.520,274.620 246.600 C 273.557 242.266,270.907 233.904,270.841 234.674 M155.309 237.600 C 155.309 238.590,155.387 238.995,155.482 238.500 C 155.578 238.005,155.578 237.195,155.482 236.700 C 155.387 236.205,155.309 236.610,155.309 237.600 M146.524 238.600 C 146.526 239.920,146.601 240.412,146.690 239.693 C 146.779 238.974,146.777 237.894,146.686 237.293 C 146.595 236.692,146.522 237.280,146.524 238.600 M241.594 242.633 C 241.589 243.275,241.524 243.302,241.200 242.800 C 240.745 242.096,240.724 242.661,241.163 243.785 C 241.438 244.488,241.500 244.452,241.755 243.438 C 241.911 242.815,241.940 242.207,241.819 242.086 C 241.699 241.965,241.597 242.212,241.594 242.633 M240.425 247.000 C 240.394 247.666,240.323 247.699,240.000 247.200 C 239.686 246.715,239.611 246.772,239.606 247.500 C 239.603 247.995,239.786 248.400,240.013 248.400 C 240.540 248.400,240.937 247.380,240.669 246.713 C 240.553 246.423,240.447 246.548,240.425 247.000 M147.517 248.878 C 146.975 249.581,146.277 250.234,145.966 250.329 C 145.655 250.424,146.020 249.849,146.778 249.051 C 148.482 247.258,148.829 247.177,147.517 248.878 M238.485 252.475 C 237.735 253.225,237.909 253.669,238.900 253.528 C 239.395 253.458,239.800 253.145,239.800 252.833 C 239.800 252.072,239.083 251.877,238.485 252.475 M140.600 253.200 C 140.160 253.389,139.530 253.544,139.200 253.544 C 138.822 253.544,138.896 253.417,139.400 253.200 C 139.840 253.011,140.470 252.856,140.800 252.856 C 141.178 252.856,141.104 252.983,140.600 253.200 M132.600 254.000 C 132.464 254.220,132.104 254.400,131.800 254.400 C 131.496 254.400,131.136 254.220,131.000 254.000 C 130.859 253.772,131.204 253.600,131.800 253.600 C 132.396 253.600,132.741 253.772,132.600 254.000 M109.350 254.987 C 109.226 255.310,109.217 255.805,109.331 256.087 C 109.444 256.369,109.551 256.206,109.568 255.724 C 109.594 255.014,109.884 254.819,111.100 254.691 L 112.600 254.534 111.087 254.467 C 110.079 254.422,109.500 254.596,109.350 254.987 M246.254 254.670 C 246.503 254.851,246.807 255.360,246.928 255.800 C 247.101 256.431,247.132 256.395,247.074 255.631 C 247.033 255.099,246.730 254.590,246.400 254.501 C 246.004 254.394,245.954 254.451,246.254 254.670 M138.100 256.276 C 138.485 256.376,139.115 256.376,139.500 256.276 C 139.885 256.175,139.570 256.093,138.800 256.093 C 138.030 256.093,137.715 256.175,138.100 256.276 M301.600 294.840 C 301.600 296.454,299.352 298.800,297.807 298.800 C 296.580 298.800,296.601 297.886,297.833 297.659 C 298.932 297.456,299.982 296.417,300.613 294.908 C 301.297 293.269,301.600 293.248,301.600 294.840 M255.200 298.754 L 260.600 299.013 253.400 299.335 C 228.422 300.453,224.000 300.396,224.000 298.951 C 224.000 298.349,244.112 298.222,255.200 298.754 M53.000 304.800 C 53.859 305.680,54.652 306.400,54.762 306.400 C 54.872 306.400,54.259 305.680,53.400 304.800 C 52.541 303.920,51.748 303.200,51.638 303.200 C 51.528 303.200,52.141 303.920,53.000 304.800 M57.200 308.600 C 57.946 309.370,58.647 310.000,58.757 310.000 C 58.867 310.000,58.346 309.370,57.600 308.600 C 56.854 307.830,56.153 307.200,56.043 307.200 C 55.933 307.200,56.454 307.830,57.200 308.600 M337.200 311.800 C 336.228 312.790,335.523 313.600,335.633 313.600 C 335.743 313.600,336.628 312.790,337.600 311.800 C 338.572 310.810,339.277 310.000,339.167 310.000 C 339.057 310.000,338.172 310.810,337.200 311.800 M63.000 314.000 C 63.859 314.880,64.652 315.600,64.762 315.600 C 64.872 315.600,64.259 314.880,63.400 314.000 C 62.541 313.120,61.748 312.400,61.638 312.400 C 61.528 312.400,62.141 313.120,63.000 314.000 M330.800 317.800 C 329.828 318.790,329.123 319.600,329.233 319.600 C 329.343 319.600,330.228 318.790,331.200 317.800 C 332.172 316.810,332.877 316.000,332.767 316.000 C 332.657 316.000,331.772 316.810,330.800 317.800 M66.400 316.925 C 66.400 316.994,66.985 317.579,67.700 318.225 L 69.000 319.400 67.825 318.100 C 66.730 316.888,66.400 316.616,66.400 316.925 M73.600 323.800 C 74.346 324.570,75.047 325.200,75.157 325.200 C 75.267 325.200,74.746 324.570,74.000 323.800 C 73.254 323.030,72.553 322.400,72.443 322.400 C 72.333 322.400,72.854 323.030,73.600 323.800 M323.385 324.900 L 321.400 327.000 323.500 325.015 C 325.451 323.171,325.783 322.800,325.485 322.800 C 325.422 322.800,324.477 323.745,323.385 324.900 M77.800 327.600 C 78.659 328.480,79.452 329.200,79.562 329.200 C 79.672 329.200,79.059 328.480,78.200 327.600 C 77.341 326.720,76.548 326.000,76.438 326.000 C 76.328 326.000,76.941 326.720,77.800 327.600 M315.785 332.100 L 313.800 334.200 315.900 332.215 C 317.055 331.123,318.000 330.178,318.000 330.115 C 318.000 329.817,317.629 330.149,315.785 332.100 M87.800 336.800 C 88.659 337.680,89.452 338.400,89.562 338.400 C 89.672 338.400,89.059 337.680,88.200 336.800 C 87.341 335.920,86.548 335.200,86.438 335.200 C 86.328 335.200,86.941 335.920,87.800 336.800 M172.719 337.835 C 172.937 339.362,172.039 339.617,168.800 338.946 C 166.151 338.398,160.556 338.348,152.240 338.800 C 151.823 338.822,151.284 338.644,151.044 338.404 C 150.279 337.639,151.647 337.166,154.000 337.381 C 155.210 337.491,159.260 337.430,163.000 337.245 C 172.209 336.789,172.573 336.811,172.719 337.835 M243.335 337.453 C 246.731 337.919,244.886 338.280,237.651 338.565 C 230.568 338.845,225.600 338.601,225.600 337.975 C 225.600 337.305,239.309 336.901,243.335 337.453 " stroke="none" fill="#1fc263" fill-rule="evenodd"></path><path id="path1" d="M146.800 78.800 L 146.800 95.600 159.550 95.600 C 166.563 95.600,172.863 95.713,173.550 95.850 L 174.800 96.100 174.800 105.650 L 174.800 115.200 198.000 115.200 L 221.200 115.200 221.200 105.641 L 221.200 96.081 223.900 95.837 C 225.385 95.703,231.280 95.613,237.000 95.637 C 242.720 95.660,247.715 95.662,248.100 95.640 C 248.755 95.603,248.800 94.518,248.800 78.800 L 248.800 62.000 197.800 62.000 L 146.800 62.000 146.800 78.800 M173.096 91.451 C 173.588 91.583,173.892 91.850,173.772 92.045 C 173.474 92.528,151.600 92.508,151.600 92.025 C 151.600 91.342,170.779 90.830,173.096 91.451 M244.967 91.443 C 246.928 92.195,244.480 92.400,233.533 92.400 C 222.043 92.400,220.101 92.242,223.496 91.584 C 225.334 91.227,244.085 91.104,244.967 91.443 M218.200 111.600 C 218.200 112.558,212.343 112.844,195.320 112.715 C 180.284 112.602,178.624 112.456,179.334 111.306 C 179.763 110.612,218.200 110.903,218.200 111.600 M174.800 205.627 L 174.800 278.854 175.700 278.585 C 178.722 277.684,182.443 274.508,183.635 271.813 C 185.611 267.348,185.600 267.751,185.600 197.748 L 185.600 132.400 180.200 132.400 L 174.800 132.400 174.800 205.627 M210.093 199.300 L 210.206 266.200 211.082 269.282 C 212.018 272.576,212.804 274.050,214.400 275.509 C 215.597 276.603,219.728 278.800,220.589 278.800 C 221.135 278.800,221.200 271.007,221.200 205.600 L 221.200 132.400 215.590 132.400 L 209.980 132.400 210.093 199.300 M183.247 158.332 C 183.759 174.139,183.457 252.505,182.875 254.800 L 182.520 256.200 182.243 254.600 C 182.090 253.720,181.536 251.650,181.011 250.000 C 178.205 241.186,178.104 157.373,180.891 151.213 C 181.404 150.079,181.777 148.185,181.911 146.032 C 182.307 139.679,182.786 144.082,183.247 158.332 M215.027 149.800 L 215.310 152.200 215.856 150.900 C 216.157 150.185,216.574 149.600,216.783 149.600 C 216.992 149.600,217.254 150.185,217.364 150.900 C 217.475 151.615,217.659 152.830,217.773 153.600 C 218.779 160.359,218.694 238.418,217.670 248.074 C 217.353 251.058,217.096 251.543,216.216 250.814 C 214.892 249.714,214.241 254.959,215.419 257.238 C 215.939 258.242,215.958 258.659,215.539 259.818 C 214.763 261.965,214.400 261.467,214.400 258.255 C 214.400 256.635,214.213 254.340,213.984 253.155 C 212.937 247.734,212.824 159.060,213.849 147.600 C 214.180 143.891,214.374 144.252,215.027 149.800 M182.276 258.300 C 182.175 258.685,182.093 258.370,182.093 257.600 C 182.093 256.830,182.175 256.515,182.276 256.900 C 182.376 257.285,182.376 257.915,182.276 258.300 M175.083 287.850 C 174.946 287.988,174.810 299.823,174.781 314.150 C 174.752 328.478,174.715 340.425,174.698 340.700 C 174.673 341.090,171.597 341.200,160.733 341.200 L 146.800 341.200 146.800 358.002 L 146.800 374.803 197.700 374.702 L 248.600 374.600 248.704 357.900 L 248.809 341.200 235.218 341.200 L 221.627 341.200 221.607 320.133 C 221.586 298.380,221.558 298.000,219.965 298.000 C 219.042 298.000,218.330 296.760,218.809 295.985 C 219.096 295.522,219.402 295.639,220.438 296.607 L 221.714 297.800 221.463 296.800 C 221.324 296.250,221.208 293.955,221.205 291.700 L 221.200 287.600 198.267 287.600 C 185.653 287.600,175.221 287.713,175.083 287.850 M218.282 289.749 C 219.675 291.142,212.717 291.689,195.601 291.533 C 181.059 291.401,178.307 291.133,179.473 289.967 C 180.040 289.400,217.721 289.188,218.282 289.749 M178.400 296.816 C 178.400 297.306,178.031 297.677,177.381 297.840 C 175.933 298.204,175.716 297.754,176.790 296.611 C 177.800 295.536,178.400 295.612,178.400 296.816 " stroke="none" fill="#f6323a" fill-rule="evenodd"></path><path id="path2" d="M0.000 200.000 L 0.000 400.000 200.000 400.000 L 400.000 400.000 400.000 200.000 L 400.000 0.000 200.000 0.000 L 0.000 0.000 0.000 200.000 M248.800 78.800 C 248.800 94.519,248.755 95.602,248.100 95.638 C 247.715 95.659,243.080 95.660,237.800 95.639 C 232.520 95.618,226.625 95.710,224.700 95.843 L 221.200 96.085 221.200 105.219 C 221.200 111.021,221.349 114.445,221.610 114.606 C 221.835 114.745,229.565 114.840,238.788 114.816 C 254.720 114.775,255.577 114.810,255.954 115.513 C 256.171 115.920,256.558 122.001,256.813 129.027 C 257.067 136.052,257.405 144.590,257.563 148.000 C 257.894 155.160,257.825 155.374,255.281 155.088 C 253.042 154.835,252.949 154.726,251.971 151.175 C 249.587 142.517,244.308 136.205,237.661 134.063 C 233.136 132.604,222.727 131.833,221.680 132.880 C 221.310 133.250,221.200 150.006,221.200 205.866 L 221.200 278.372 222.100 278.854 C 222.605 279.124,225.458 279.438,228.600 279.568 L 234.200 279.800 234.302 283.200 C 234.445 287.963,234.726 287.764,227.516 288.000 L 221.400 288.200 221.400 292.400 L 221.400 296.600 259.800 296.600 L 298.200 296.600 298.301 222.700 L 298.402 148.800 284.397 148.800 L 270.391 148.800 270.496 131.700 L 270.600 114.600 322.200 114.600 L 373.800 114.600 373.904 131.700 L 374.009 148.800 360.404 148.800 L 346.800 148.800 346.800 225.926 L 346.800 303.052 338.314 311.026 C 330.287 318.569,317.897 330.278,309.692 338.076 L 305.983 341.600 277.396 341.600 L 248.809 341.600 248.704 358.100 L 248.600 374.600 197.700 374.702 L 146.800 374.803 146.800 358.202 L 146.800 341.600 119.900 341.582 L 93.000 341.564 83.000 332.337 C 68.436 318.901,63.675 314.521,57.300 308.696 L 51.600 303.489 51.600 226.144 L 51.600 148.800 37.600 148.800 L 23.600 148.800 23.600 131.598 L 23.600 114.397 75.300 114.498 L 127.000 114.600 127.000 131.600 L 127.000 148.600 113.300 148.705 L 99.600 148.811 99.600 222.807 L 99.600 296.804 137.100 296.702 L 174.600 296.600 174.714 292.300 L 174.827 288.000 168.646 288.000 C 160.684 288.000,161.199 288.273,161.206 284.057 C 161.214 279.508,160.913 279.736,167.200 279.504 C 170.170 279.394,173.095 279.104,173.701 278.861 L 174.802 278.419 174.701 205.509 L 174.600 132.600 169.800 132.729 C 155.924 133.103,149.324 138.258,146.373 151.029 C 145.885 153.141,145.286 154.928,145.043 155.000 C 140.600 156.319,140.456 156.032,140.831 146.600 C 141.006 142.200,141.346 133.389,141.587 127.021 C 141.828 120.652,142.125 115.342,142.246 115.221 C 142.552 114.914,142.943 114.906,159.800 114.850 L 174.800 114.800 174.800 105.450 L 174.800 96.100 173.550 95.850 C 172.863 95.713,166.563 95.600,159.550 95.600 L 146.800 95.600 146.800 78.800 L 146.800 62.000 197.800 62.000 L 248.800 62.000 248.800 78.800 M152.900 91.489 C 152.185 91.578,151.600 91.819,151.600 92.025 C 151.600 92.508,173.474 92.528,173.772 92.045 C 174.243 91.283,158.043 90.851,152.900 91.489 M223.496 91.584 C 220.101 92.242,222.043 92.400,233.533 92.400 C 244.480 92.400,246.928 92.195,244.967 91.443 C 244.085 91.104,225.334 91.227,223.496 91.584 M179.334 111.306 C 178.624 112.456,180.284 112.602,195.320 112.715 C 212.343 112.844,218.200 112.558,218.200 111.600 C 218.200 110.903,179.763 110.612,179.334 111.306 M183.600 117.561 C 176.159 117.778,175.493 117.854,176.400 118.384 C 177.588 119.077,217.524 119.564,219.999 118.916 C 225.569 117.458,208.710 116.830,183.600 117.561 M224.900 127.396 C 222.964 128.238,223.312 128.682,226.100 128.926 C 244.082 130.503,250.987 135.132,254.404 147.900 C 255.122 150.583,256.021 152.279,255.994 150.900 C 255.975 149.931,254.601 144.901,253.537 141.909 C 251.025 134.839,241.971 128.756,232.800 127.976 C 230.710 127.799,228.371 127.461,227.603 127.227 C 226.834 126.992,226.204 126.807,226.203 126.816 C 226.201 126.824,225.615 127.086,224.900 127.396 M165.800 128.408 C 154.516 129.054,146.208 136.223,144.176 147.068 C 143.239 152.069,144.112 152.009,145.183 147.000 C 146.523 140.729,152.694 133.319,158.383 131.150 C 159.935 130.558,162.431 130.157,166.707 129.812 C 170.066 129.541,172.941 129.192,173.096 129.038 C 173.490 128.643,172.360 128.000,171.400 128.073 C 170.960 128.106,168.440 128.257,165.800 128.408 M274.335 141.402 C 273.841 142.245,273.569 145.534,273.973 145.783 C 274.882 146.345,276.044 145.230,275.536 144.283 C 275.275 143.797,274.950 142.861,274.815 142.202 C 274.679 141.543,274.463 141.183,274.335 141.402 M123.229 143.959 C 122.387 145.142,122.386 145.164,123.159 145.578 C 124.814 146.464,125.812 145.040,124.629 143.480 C 124.116 142.805,124.030 142.834,123.229 143.959 M181.895 146.256 C 181.737 148.688,181.401 150.368,180.861 151.429 C 178.277 156.506,178.201 243.101,180.776 249.014 C 181.162 249.901,181.602 251.341,181.753 252.214 C 181.904 253.086,182.142 254.340,182.282 255.000 L 182.537 256.200 182.880 254.800 C 183.452 252.464,183.752 175.182,183.253 158.945 C 182.793 143.995,182.324 139.621,181.895 146.256 M213.849 147.600 C 212.824 159.060,212.937 247.734,213.984 253.155 C 214.213 254.340,214.400 256.635,214.400 258.255 C 214.400 261.467,214.763 261.965,215.539 259.818 C 215.958 258.659,215.939 258.242,215.419 257.238 C 214.241 254.959,214.892 249.714,216.216 250.814 C 217.096 251.543,217.353 251.058,217.670 248.074 C 218.694 238.418,218.779 160.359,217.773 153.600 C 217.659 152.830,217.475 151.615,217.364 150.900 C 217.254 150.185,216.992 149.600,216.783 149.600 C 216.574 149.600,216.157 150.185,215.856 150.900 L 215.310 152.200 215.027 149.800 C 214.374 144.252,214.180 143.891,213.849 147.600 M98.402 146.337 C 97.776 146.962,97.072 148.190,96.836 149.065 C 95.691 153.319,95.604 239.132,96.733 251.000 C 97.406 258.070,97.735 239.557,97.708 196.200 C 97.676 146.095,97.610 147.086,101.038 146.226 C 102.408 145.882,102.229 145.200,100.769 145.200 C 99.950 145.200,99.158 145.580,98.402 146.337 M296.582 145.571 C 296.708 145.775,297.424 146.144,298.173 146.391 C 301.233 147.401,300.990 142.954,301.084 199.600 C 301.131 227.782,301.326 250.732,301.524 251.400 C 302.174 253.585,302.498 227.915,302.329 187.600 C 302.156 146.095,302.226 147.507,300.253 145.909 C 299.378 145.200,296.170 144.904,296.582 145.571 M196.814 153.669 C 191.944 155.947,192.047 155.933,191.740 154.400 C 189.878 145.090,189.006 218.765,190.676 244.300 C 190.875 247.350,191.330 248.050,191.749 245.953 C 192.047 244.467,191.986 244.457,197.200 246.868 C 206.245 251.052,206.909 247.859,206.909 200.200 C 206.909 152.155,206.277 149.242,196.814 153.669 M260.482 192.300 C 278.617 251.088,279.206 252.678,283.418 254.131 C 284.511 254.508,285.040 254.943,285.128 255.538 L 285.256 256.400 275.000 256.400 L 264.744 256.400 264.872 255.540 C 264.968 254.898,265.481 254.540,266.898 254.128 C 270.781 253.000,270.897 250.546,267.561 240.152 L 265.453 233.586 255.650 233.693 L 245.846 233.800 243.678 240.400 C 240.238 250.866,240.444 253.000,245.000 254.112 C 246.588 254.499,247.026 254.786,247.128 255.500 L 247.256 256.400 239.028 256.400 L 230.800 256.400 230.800 255.443 C 230.800 254.732,231.082 254.417,231.900 254.216 C 235.515 253.328,236.584 251.266,241.362 235.974 C 244.417 226.195,253.191 198.685,257.013 186.900 C 257.656 184.916,258.711 186.557,260.482 192.300 M138.428 188.568 C 148.127 190.298,153.207 197.073,152.731 207.640 C 152.475 213.327,150.370 217.452,146.338 220.167 L 144.326 221.522 146.757 222.613 C 159.526 228.343,157.771 250.184,144.132 255.295 C 141.900 256.131,141.098 256.175,125.469 256.309 L 109.138 256.449 109.269 255.525 C 109.382 254.725,109.685 254.571,111.504 254.389 C 114.634 254.074,115.922 252.638,116.442 248.881 C 117.163 243.678,116.731 194.888,115.948 193.167 C 114.962 190.997,113.450 190.000,111.146 190.000 C 109.259 190.000,108.508 189.225,109.467 188.267 C 109.996 187.738,135.246 188.000,138.428 188.568 M129.800 189.200 C 129.936 189.420,130.397 189.600,130.824 189.600 C 131.251 189.600,131.600 189.420,131.600 189.200 C 131.600 188.980,131.139 188.800,130.576 188.800 C 129.996 188.800,129.660 188.973,129.800 189.200 M121.250 190.940 C 120.607 191.715,120.816 219.489,121.473 220.600 C 122.127 221.706,122.657 220.428,122.030 219.256 C 121.462 218.194,121.458 192.213,122.026 191.151 C 122.490 190.284,121.922 190.130,121.250 190.940 M125.600 192.101 L 124.200 192.600 124.095 205.655 L 123.989 218.711 125.095 218.988 C 127.288 219.539,135.542 219.284,137.596 218.601 C 147.318 215.372,147.160 197.553,137.366 192.776 C 135.020 191.632,128.041 191.231,125.600 192.101 M148.421 199.524 C 150.585 205.315,149.098 212.073,144.619 216.800 C 141.410 220.187,141.259 222.616,144.188 223.740 C 144.631 223.910,144.518 223.543,143.808 222.498 C 142.414 220.446,142.497 220.089,145.036 217.170 C 148.565 213.115,150.723 207.917,150.255 204.600 C 149.932 202.302,148.922 199.116,148.226 198.193 C 147.808 197.639,147.867 198.040,148.421 199.524 M257.878 197.855 C 257.412 198.322,257.568 199.541,258.137 199.880 C 258.432 200.056,258.957 200.650,259.304 201.200 C 260.247 202.698,267.200 224.878,267.485 227.299 C 267.621 228.455,268.154 230.195,268.670 231.167 C 269.521 232.769,272.027 240.285,273.218 244.800 C 273.478 245.790,273.668 247.764,273.639 249.187 C 273.599 251.170,273.696 251.664,274.057 251.303 C 275.190 250.170,273.783 243.475,270.381 233.800 C 269.685 231.820,268.933 229.480,268.711 228.600 C 265.680 216.598,258.764 196.969,257.878 197.855 M253.698 209.298 C 252.566 212.654,250.719 218.370,249.593 222.000 C 248.467 225.630,247.474 228.825,247.386 229.100 C 247.261 229.489,249.116 229.600,255.775 229.600 L 264.325 229.600 263.001 225.300 C 258.020 209.131,256.308 203.763,256.051 203.498 C 255.889 203.332,254.830 205.942,253.698 209.298 M250.989 211.900 C 249.536 216.465,247.984 221.325,247.541 222.701 C 247.097 224.077,246.817 225.427,246.918 225.701 C 247.019 225.975,247.234 225.660,247.395 225.000 C 247.557 224.340,249.041 219.570,250.692 214.400 C 254.266 203.214,254.153 203.600,253.862 203.600 C 253.734 203.600,252.441 207.335,250.989 211.900 M124.196 223.665 C 124.082 223.962,124.037 230.316,124.095 237.785 L 124.200 251.365 126.000 251.931 C 129.049 252.889,136.204 252.759,138.519 251.703 C 149.220 246.824,149.094 229.518,138.320 224.570 C 135.360 223.210,124.635 222.523,124.196 223.665 M147.748 226.757 C 149.460 228.876,150.740 231.706,151.284 234.572 C 151.929 237.975,152.660 238.122,152.415 234.800 C 152.278 232.942,149.952 228.514,148.286 226.942 C 146.706 225.451,146.688 225.445,147.748 226.757 M121.360 231.800 C 121.361 235.100,121.422 236.397,121.498 234.682 C 121.573 232.967,121.572 230.267,121.497 228.682 C 121.421 227.097,121.359 228.500,121.360 231.800 M245.156 231.700 C 244.686 232.595,244.688 232.596,245.542 231.838 C 246.495 230.991,246.582 230.800,246.014 230.800 C 245.802 230.800,245.416 231.205,245.156 231.700 M242.254 239.118 C 241.263 242.196,240.355 245.408,240.235 246.257 L 240.018 247.800 240.470 246.400 C 243.007 238.538,244.396 233.863,244.242 233.709 C 244.140 233.606,243.245 236.041,242.254 239.118 M121.023 246.522 C 120.466 248.470,120.985 251.659,121.993 252.475 C 123.299 253.532,123.892 253.362,122.832 252.234 C 122.139 251.497,121.855 250.572,121.634 248.334 C 121.395 245.919,121.287 245.598,121.023 246.522 M146.975 248.828 C 145.510 250.359,143.731 251.470,140.843 252.658 C 139.609 253.166,138.870 253.581,139.200 253.581 C 141.240 253.581,146.517 250.502,147.779 248.575 C 148.634 247.270,148.392 247.347,146.975 248.828 M131.000 254.000 C 131.136 254.220,131.496 254.400,131.800 254.400 C 132.104 254.400,132.464 254.220,132.600 254.000 C 132.741 253.772,132.396 253.600,131.800 253.600 C 131.204 253.600,130.859 253.772,131.000 254.000 M182.093 257.600 C 182.093 258.370,182.175 258.685,182.276 258.300 C 182.376 257.915,182.376 257.285,182.276 256.900 C 182.175 256.515,182.093 256.830,182.093 257.600 M173.000 281.227 C 172.340 281.380,170.675 281.527,169.300 281.553 C 165.314 281.628,166.328 282.400,170.413 282.400 C 173.300 282.400,174.073 282.276,174.262 281.783 C 174.575 280.966,174.421 280.898,173.000 281.227 M223.249 281.812 C 224.049 282.622,230.127 283.165,230.560 282.465 C 230.894 281.925,230.000 281.725,225.800 281.402 C 222.836 281.174,222.648 281.205,223.249 281.812 M188.300 283.106 C 176.096 283.207,172.767 283.571,177.900 284.244 C 180.896 284.636,221.060 284.674,221.449 284.285 C 222.701 283.033,217.841 282.860,188.300 283.106 M197.016 289.480 C 180.172 289.606,178.141 289.772,180.057 290.863 C 182.250 292.112,216.851 291.709,218.141 290.419 C 219.245 289.315,219.218 289.313,197.016 289.480 M97.200 294.420 C 97.200 296.742,98.995 298.800,101.019 298.800 C 102.021 298.800,101.654 298.168,100.307 297.572 C 99.271 297.114,98.909 296.623,98.484 295.100 C 97.884 292.951,97.200 292.589,97.200 294.420 M300.613 294.908 C 299.982 296.417,298.932 297.456,297.833 297.659 C 296.601 297.886,296.580 298.800,297.807 298.800 C 299.352 298.800,301.600 296.454,301.600 294.840 C 301.600 293.248,301.297 293.269,300.613 294.908 M176.790 296.611 C 175.716 297.754,175.933 298.204,177.381 297.840 C 178.031 297.677,178.400 297.306,178.400 296.816 C 178.400 295.612,177.800 295.536,176.790 296.611 M218.670 296.161 C 218.361 296.966,219.221 297.876,220.500 298.098 C 221.891 298.340,221.886 298.024,220.478 296.675 C 219.195 295.446,218.969 295.382,218.670 296.161 M158.800 298.422 C 153.850 298.573,147.820 298.748,145.400 298.810 L 141.000 298.923 145.600 299.248 C 156.873 300.046,172.567 299.841,173.787 298.882 L 174.908 298.000 171.354 298.073 C 169.399 298.114,163.750 298.270,158.800 298.422 M224.000 298.951 C 224.000 300.396,228.422 300.453,253.400 299.335 L 260.600 299.013 255.200 298.754 C 244.112 298.222,224.000 298.349,224.000 298.951 M163.000 337.245 C 159.260 337.430,155.210 337.491,154.000 337.381 C 151.647 337.166,150.279 337.639,151.044 338.404 C 151.284 338.644,151.823 338.822,152.240 338.800 C 160.556 338.348,166.151 338.398,168.800 338.946 C 172.039 339.617,172.937 339.362,172.719 337.835 C 172.573 336.811,172.209 336.789,163.000 337.245 M226.700 337.487 C 224.841 337.768,225.475 338.283,228.038 338.573 C 230.870 338.893,244.740 338.420,245.004 337.994 C 245.426 337.311,230.579 336.899,226.700 337.487 " stroke="none" fill="#fbfbfb" fill-rule="evenodd"></path><path id="path3" d="M221.200 114.833 C 221.200 115.205,212.404 115.255,182.100 115.055 C 160.595 114.913,142.781 114.940,142.513 115.114 C 142.166 115.340,141.900 118.771,141.587 127.016 C 141.346 133.387,141.006 142.200,140.831 146.600 C 140.456 156.032,140.600 156.319,145.043 155.000 C 145.286 154.928,145.885 153.141,146.373 151.029 C 147.762 145.018,151.476 138.909,155.469 136.069 C 159.381 133.287,161.730 132.868,175.300 132.535 L 185.600 132.282 185.600 197.688 C 185.600 267.756,185.611 267.347,183.635 271.813 C 182.351 274.716,178.084 278.202,175.341 278.588 C 174.714 278.677,173.230 278.941,172.045 279.175 C 170.860 279.409,168.045 279.600,165.788 279.600 C 162.416 279.600,161.642 279.713,161.443 280.233 C 160.966 281.476,161.174 287.524,161.700 287.708 C 161.975 287.804,175.475 287.792,191.700 287.682 C 208.996 287.565,221.200 287.631,221.199 287.841 C 221.198 288.505,233.576 287.886,234.018 287.200 C 234.230 286.870,234.358 285.070,234.302 283.200 L 234.200 279.800 228.586 279.568 C 225.498 279.440,222.637 279.149,222.229 278.920 C 221.820 278.692,221.176 278.586,220.797 278.685 C 219.994 278.895,215.857 276.841,214.400 275.509 C 212.804 274.050,212.018 272.576,211.082 269.282 L 210.206 266.200 210.093 199.300 L 209.980 132.400 215.590 132.400 C 219.687 132.400,221.200 132.529,221.200 132.880 C 221.200 133.253,221.307 133.253,221.680 132.880 C 222.727 131.833,233.136 132.604,237.661 134.063 C 244.308 136.205,249.587 142.517,251.971 151.175 C 252.949 154.726,253.042 154.835,255.281 155.088 C 257.825 155.374,257.894 155.160,257.563 148.000 C 257.405 144.590,257.067 136.052,256.813 129.027 C 256.558 122.001,256.171 115.920,255.954 115.513 C 255.577 114.810,254.720 114.775,238.788 114.816 C 229.565 114.840,221.835 114.745,221.610 114.606 C 221.384 114.467,221.200 114.569,221.200 114.833 M221.508 117.975 C 221.287 119.138,218.370 119.281,198.000 119.125 C 180.879 118.994,177.231 118.869,176.400 118.384 C 175.112 117.632,184.830 117.304,206.708 117.361 C 219.439 117.394,221.601 117.484,221.508 117.975 M227.603 127.227 C 228.371 127.461,230.710 127.799,232.800 127.976 C 245.217 129.032,255.769 139.460,255.994 150.900 C 256.021 152.279,255.122 150.583,254.404 147.900 C 250.987 135.132,244.082 130.503,226.100 128.926 C 223.312 128.682,222.964 128.238,224.900 127.396 C 225.615 127.086,226.201 126.824,226.203 126.816 C 226.204 126.807,226.834 126.992,227.603 127.227 M172.788 128.384 C 173.878 129.073,172.841 129.317,166.707 129.812 C 162.431 130.157,159.935 130.558,158.383 131.150 C 152.694 133.319,146.523 140.729,145.183 147.000 C 144.112 152.009,143.239 152.069,144.176 147.068 C 146.208 136.223,154.516 129.054,165.800 128.408 C 168.440 128.257,170.960 128.106,171.400 128.073 C 171.840 128.040,172.465 128.180,172.788 128.384 M203.800 153.601 C 206.463 157.443,206.909 164.133,206.909 200.200 C 206.909 247.859,206.245 251.052,197.200 246.868 C 191.986 244.457,192.047 244.467,191.749 245.953 C 191.612 246.639,191.357 247.200,191.183 247.200 C 189.712 247.200,189.321 176.874,190.676 156.100 C 190.874 153.075,191.329 152.347,191.740 154.400 C 192.047 155.933,191.944 155.947,196.814 153.669 C 201.542 151.458,202.310 151.450,203.800 153.601 M174.262 281.783 C 174.073 282.276,173.300 282.400,170.413 282.400 C 166.328 282.400,165.314 281.628,169.300 281.553 C 170.675 281.527,172.340 281.380,173.000 281.227 C 174.421 280.898,174.575 280.966,174.262 281.783 M229.916 281.836 C 230.456 281.946,230.721 282.205,230.560 282.465 C 230.127 283.165,224.049 282.622,223.249 281.812 C 222.609 281.165,226.711 281.179,229.916 281.836 M221.295 283.535 C 222.256 284.496,220.530 284.582,200.675 284.564 C 180.824 284.546,175.600 284.340,175.600 283.577 C 175.600 282.853,220.573 282.813,221.295 283.535 " stroke="none" fill="#fbfa36" fill-rule="evenodd"></path><path id="path4" d="M24.000 131.598 L 24.000 148.800 37.800 148.800 L 51.600 148.800 51.600 225.955 L 51.600 303.109 59.100 310.033 C 63.225 313.842,67.951 318.227,69.603 319.779 C 71.255 321.331,75.652 325.390,79.374 328.800 C 83.097 332.210,87.748 336.485,89.711 338.300 L 93.280 341.600 118.140 341.546 C 131.813 341.516,150.200 341.370,159.000 341.222 C 171.555 341.011,166.229 340.936,134.268 340.876 L 93.535 340.800 87.091 334.900 C 83.547 331.655,78.021 326.570,74.812 323.600 C 67.522 316.854,56.353 306.616,54.100 304.616 L 52.400 303.107 52.400 225.553 L 52.400 148.000 38.400 148.000 L 24.400 148.000 24.400 131.600 L 24.400 115.200 75.200 115.200 L 126.000 115.200 126.000 131.595 L 126.000 147.989 112.500 148.095 L 99.000 148.200 98.899 222.100 C 98.831 271.553,98.931 296.000,99.201 296.000 C 99.470 296.000,99.602 271.622,99.598 222.500 L 99.591 149.000 113.200 148.895 L 126.809 148.789 126.704 131.695 L 126.600 114.600 75.300 114.498 L 24.000 114.397 24.000 131.598 M270.800 131.600 L 270.800 148.800 284.600 148.800 L 298.400 148.800 298.400 222.800 L 298.400 296.800 259.920 296.800 C 233.767 296.800,221.571 296.931,221.848 297.208 C 222.342 297.702,297.933 297.573,298.700 297.076 C 299.097 296.819,299.200 281.438,299.200 222.376 L 299.200 148.000 285.400 148.000 L 271.600 148.000 271.600 131.598 L 271.600 115.197 322.262 115.298 L 372.923 115.400 372.892 117.100 C 372.875 118.035,372.848 125.368,372.831 133.395 L 372.800 147.989 359.300 148.095 L 345.800 148.200 345.699 225.598 L 345.598 302.996 344.099 304.368 C 340.735 307.446,317.159 329.719,310.083 336.504 L 305.595 340.807 263.738 340.796 C 240.717 340.790,221.817 340.849,221.739 340.927 C 221.496 341.170,261.471 341.600,284.166 341.598 L 305.800 341.597 319.200 328.902 C 326.570 321.919,335.660 313.307,339.400 309.763 L 346.200 303.319 346.301 226.060 L 346.402 148.800 360.001 148.800 L 373.600 148.800 373.600 131.600 L 373.600 114.400 322.200 114.400 L 270.800 114.400 270.800 131.600 M257.285 187.076 C 257.082 187.474,255.076 193.560,252.827 200.600 C 250.578 207.640,246.933 218.980,244.727 225.800 C 242.522 232.620,240.179 240.000,239.520 242.200 C 237.175 250.041,235.347 253.176,232.558 254.141 C 231.484 254.513,231.000 254.916,231.000 255.440 C 231.000 256.157,231.444 256.206,238.900 256.308 C 246.503 256.413,246.800 256.388,246.800 255.637 C 246.800 255.038,246.302 254.712,244.652 254.232 C 240.075 252.902,240.023 250.708,244.265 238.000 L 245.800 233.400 255.445 233.293 C 266.836 233.167,265.340 232.256,267.962 240.909 C 271.079 251.198,270.746 253.763,266.200 254.482 C 265.727 254.556,265.348 254.975,265.272 255.504 L 265.144 256.400 275.000 256.400 L 284.856 256.400 284.728 255.527 C 284.646 254.970,284.207 254.549,283.517 254.366 C 279.920 253.410,278.500 250.638,273.797 235.400 C 271.896 229.240,269.108 220.330,267.601 215.600 C 266.095 210.870,263.843 203.670,262.598 199.600 C 258.349 185.707,258.182 185.315,257.285 187.076 M109.600 189.000 C 109.600 189.913,109.751 190.000,111.341 190.000 C 113.821 190.000,115.622 191.311,116.292 193.605 C 117.301 197.056,116.823 250.838,115.772 252.271 C 114.731 253.689,112.594 254.799,110.900 254.799 C 109.850 254.800,109.600 254.960,109.600 255.633 C 109.600 256.717,138.307 256.620,142.458 255.522 C 157.699 251.490,160.053 228.638,145.871 222.387 L 143.943 221.537 145.677 220.437 C 159.456 211.699,152.195 188.172,135.800 188.438 C 134.323 188.462,134.388 188.505,136.650 188.997 C 149.930 191.885,154.886 206.639,145.923 216.600 C 142.578 220.317,142.743 221.894,146.793 224.917 C 153.931 230.246,154.651 239.757,148.546 248.074 C 143.817 254.516,127.902 257.073,121.234 252.463 C 120.757 252.133,120.647 247.281,120.532 221.460 L 120.395 190.849 121.286 190.225 C 122.975 189.042,124.079 189.431,122.910 190.797 C 122.075 191.771,121.665 216.694,122.443 219.103 C 122.774 220.129,122.720 220.782,122.189 222.172 C 121.818 223.144,121.620 224.109,121.749 224.317 C 121.877 224.525,121.996 230.401,122.011 237.374 C 122.042 250.990,122.125 251.631,123.994 252.597 C 125.594 253.424,130.041 253.846,131.042 253.265 C 131.725 252.868,131.689 252.823,130.679 252.812 C 130.062 252.805,128.307 252.516,126.779 252.168 L 124.000 251.536 124.000 237.422 L 124.000 223.309 125.856 223.054 C 133.054 222.068,139.889 223.951,142.984 227.774 C 150.456 237.004,146.140 251.190,135.412 252.660 C 133.473 252.926,133.072 253.369,134.444 253.728 C 136.812 254.347,144.520 251.136,146.743 248.604 C 152.948 241.537,152.147 230.314,145.047 224.836 C 143.059 223.302,141.200 221.202,141.200 220.490 C 141.200 220.301,142.396 218.819,143.857 217.197 C 147.851 212.763,148.600 210.867,148.600 205.200 C 148.600 195.794,143.064 189.947,134.000 189.781 C 129.352 189.697,127.692 189.321,128.675 188.575 C 129.296 188.104,127.986 188.024,119.500 188.013 L 109.600 188.000 109.600 189.000 M130.033 188.149 C 130.125 188.231,131.100 188.407,132.200 188.541 C 133.546 188.705,133.939 188.665,133.400 188.420 C 132.639 188.074,129.683 187.836,130.033 188.149 M136.235 192.223 C 144.082 194.389,147.756 206.144,143.073 214.106 C 140.606 218.300,138.059 219.396,130.800 219.392 C 123.154 219.387,124.000 221.099,124.000 205.640 L 124.000 192.454 124.886 192.173 C 128.026 191.176,132.514 191.196,136.235 192.223 M264.580 213.600 C 266.635 220.090,268.443 226.030,268.599 226.800 C 268.755 227.570,269.936 231.350,271.224 235.200 C 274.844 246.026,275.799 250.334,274.858 251.600 C 273.289 253.712,272.935 253.175,272.958 248.716 C 272.981 244.171,270.328 234.403,268.175 231.109 C 267.553 230.157,267.200 229.038,267.200 228.018 C 267.200 226.495,266.079 222.586,261.517 208.203 C 259.753 202.639,259.304 201.637,258.078 200.514 L 256.668 199.223 257.403 197.592 L 258.139 195.962 259.492 198.881 C 260.236 200.486,262.526 207.110,264.580 213.600 M251.653 212.273 C 249.879 217.733,248.177 223.181,247.873 224.380 C 247.319 226.561,246.400 227.597,246.400 226.041 C 246.400 224.915,253.132 204.033,253.872 202.865 C 255.213 200.748,254.718 202.845,251.653 212.273 M258.569 210.500 C 259.867 214.735,261.707 220.630,262.659 223.600 C 263.610 226.570,264.391 229.225,264.394 229.500 C 264.400 229.990,247.626 230.292,247.144 229.811 C 247.040 229.707,247.709 227.322,248.631 224.511 C 251.996 214.250,255.200 203.944,255.200 203.379 C 255.200 201.008,256.507 203.770,258.569 210.500 M131.793 220.388 C 132.090 220.869,130.231 221.374,129.376 221.046 C 129.031 220.914,128.861 220.624,128.998 220.403 C 129.317 219.888,131.476 219.876,131.793 220.388 M245.893 232.066 C 244.904 233.387,242.573 240.010,241.207 245.383 C 240.431 248.434,239.284 249.681,239.765 246.951 C 240.535 242.578,244.215 232.177,245.519 230.691 C 246.646 229.405,246.977 230.620,245.893 232.066 M263.000 231.000 C 263.000 231.478,254.060 231.770,252.000 231.360 C 250.659 231.093,250.642 231.069,251.600 230.787 C 253.109 230.342,263.000 230.527,263.000 231.000 M239.800 252.833 C 239.800 253.145,239.395 253.458,238.900 253.528 C 237.909 253.669,237.735 253.225,238.485 252.475 C 239.083 251.877,239.800 252.072,239.800 252.833 M100.400 297.200 C 101.236 297.740,174.266 297.740,174.600 297.200 C 174.764 296.934,162.239 296.802,137.324 296.806 C 112.950 296.810,100.010 296.948,100.400 297.200 " stroke="none" fill="#111511" fill-rule="evenodd"></path></g></svg>